<svg xmlns="http://www.w3.org/2000/svg" width="333.1" height="305.3" fill="none" overflow="visible" style="display:block" viewBox="0 0 333.1 305.3"><path fill="#dd3e3e" fill-rule="evenodd" d="m203.5 1.5-.8 1.6.5 1.4q-.1.7-.4 1.3 0 1.3.4 2.4l3.5-.7c1.7-.6 3.5-1.4 4.7.3-.4 2.3-2.6 2-4.5 2.2q-1.8.1-3.4.8V22c3.3 1.1 3.8 3 3.2 6.3.8.5 1.7.5 2.5.8q1.6.6 2.8 1.6c4.6 2.9 8.5 9 10.2 14.1 1 2.8 2 5 1 7.8.4.4 1 .2 1.6.5q1.2.5 2.2 1.2l6.3 4.4 2 1.6 1.6.6q1 1.5 0 2.9c-2.1.6-3.8.6-4.4 3l-2-.5-.1 4.2c-1 7.8-.5 15.8-.5 23.7 0 4.3.6 8.9-1 13-1.2-1-1.1-3.2-1.3-4.7q-.5-3.3-.6-6.7-.1-9.7-.7-19.3c-.2-3.3-.7-6.9-.2-10.2l.9-2.4-3.2-1.8q-2.7-1.6-5.2-3.4c-1.3-.9-2.7-1.7-3.2-3.1 2-.6 3.8.6 5.7 1.6q4.6 2.9 9 6.1l3-1.4q-3.6-2.6-7.4-5c-.8-.6-1.7-1.7-2.6-2-.6-.3-1.2 0-1.9-.2l-1.3-.7c-1.6-.7-3.2-1-4.7-1.9l-3 2.8c-.8-1.1-.2-1.8.2-3-1.8-1.2-4.7-.5-6.8-.7-2.9-.4-5.8.3-8.7.5q-2.2 0-4.3.2c-2.7.4-7.5 1.5-10 2.5-1.8-.9-7.8-.6-9.5.5 1.4 1 2.5 1.8 3.2 3.4 2-.3 3.8-1.1 5.7-1.5q4.6-1 9.3-1.4l7.6-1.3c4-.6 8.3-1.5 12.2-.2-1.8 1.7-6.3 1.9-8.8 2.3L181 59.8c-1.3.2-2.5 0-3.8.2 1.6 1.5.6 1.1 1 3l.6 2.3.4 6.7c.6 6.5.6 13 1 19.6v5.6q.6 2.8.4 5.7c-.2 1.3-1 2.4-1.1 3.7q3-.5 6.1-.8c1 0 2 .5 2.8.4 2.5-.3 5-1.3 7.5-1.8q7.1-1.6 14.3-2.6 2.1-.2 4.1-.6h1.6l1.6-.4 1.4 1.1c0 1.5-.4 2-1.7 2.5.9 1.5-.4 2.4-.9 3.8 1 .5 2.1.5 3.2.9q3.3 1.4 6.4 3.3c.6.3 2.5 1.8 3 1.8l1-.3 1 1.5 1.8-1.2c-2.4-2.4-7-4.5-10.2-6.5-1.4-.9-3.2-1.9-4-3.5h2.2c2 .4 4 2 5.7 3 .7.3 1.5 1.2 2.2 1.4h1.2a14 14 0 0 0 4.6 3.5c.6.3 1.2.1 1.7.6 1.3 1.2.5 3.1-.9 3.7s-2.2.7-3.7 1.7q.6 4.4.2 8.7c-.3 4 0 8.3 0 12.3 0 2.2-.5 4.6.1 6.7 1.7-1 2.7-.5 4.4.1q4.1 1.7 8.1 3.6a183 183 0 0 1 33.2 18l3.7 2.7q1.4 1.5 3.3 2.6 3.4 1.9 7 3.4 2.4 1.4 5 2.6c.7.3 1.6.2 2.3.6 1.7.8 1.6 2.8.6 4l-1.7.5c-.7.2-2.1 1.4-3.2 1.8l.5 2.7c.3 2.2 0 4.7 0 7 0 2 .1 4.2-1 6-.7-1.7-.7-3.4-1-5.3-.4-3.5-.8-6.9-.2-10.4-1.2-1-2.9-2-4.4-2.2-.2 1.3.1 2.5-.7 3.5-1-1.4-.5-3-.7-4.6-1.3-.8-2.7-1-4.1-1.7l-6-3.2c-1.3-.6-3-1-3.5-2.3 1.4-.5 2.8.5 4 1q5.6 2 11 4.4 1-.7 1.7-1.9c-.5-.4-1.6-1.3-2.4-1.3-.5 0-.6.2-1.2 0-1-.4-1.5-1.4-2.4-2q-3.8-2-7.7-3.8l-27.2-14.4q-6-3.2-11.8-6.8c-2-1.1-3.9-2.1-5.6-3.8-.6 2.2 0 4.9-.1 7.2l-.2 1.3q-.2 2 0 4l-.2 10.6c0 2.2.6 6.8-.5 8.6-1-1.5-.5-3.2-.6-4.8l-.6-10.7a282 282 0 0 0-.8-19v-3l-.5-10.3c-.2-4.2-1.6-10 0-14-4-1.8-8.5-3.6-11.8-6.7-.2 1.4.2 3 .2 4.4v36.9l-.5 3.3c2 1.3 6.2 2.9 7.7 4.5q.8.7.8 1.9c-1.5 2.6-4.7.6-6.8-.2-.5 1.8 0 7.7.4 9.8l.1 5.3q.5 2.8.2 5.7l-.5 3 7 3.5c1.4.9 2.8 2 4.4 1.8 1.4 1 2.6 2.2 2.6 4-1.4 1.2-2.4.5-4 .1-1-.2-2.3 0-3.3-.5l-1.2-.9q-2-1.4-4-2.4l.5 1.7.3 3q.1 3.4-.1 7v27.9c0 1.2.2 2.6-.8 3.4-.6-1.2-.4-2.6-.5-4-.4-2.8-.3-5.6-.5-8.4l-.9-15c-.4-5.7-1.3-10.7.8-16.2q-4.1-2.7-8.5-4.9a265 265 0 0 1-15-9.3l-5.4-3.5c-.4-.3-1.5-.8-1.6-1.4v-.9c1.3-.2 4.5-.1 5.3 1.2.6 1 .3 1.3 1.4 2.5 2.6 0 4.8 1.8 7.1 3 5 2.5 10 5.5 15.2 7.5l-.5-4.9c-.2-3.1.4-6.5 0-9.6 0-.7-.5-1.3-.6-2-.4-2.5-.3-5.2-.7-7.7q-2-.8-3.8-2.2l-1.5-1.2q-6-3.7-11.9-7l-4-2.3q-.7-.5-1.2-1.2-1.2-1-2.8-1.6a3 3 0 0 0-.8 1.9c0 .1 0 1-.2 1h-.2v-4.3c-1.4-1-1.6-2-3.4-1.1-.1 2.8.2 5.9-.2 8.7l-.4 1.4c-.3 1.3 0 3 0 4.4q0 2.8.2 5.5v9l.1 16.3q0 1.1-.3 2.3l-.5.7v3q.3-.2.6 0c.3.1.6 2.5.7 3q.2 2.8 0 5.6l.3 4.7.3 18.6c0 1.8-.6 5-.5 6.3l.5 1.4q.3 2.6.3 5.3c.1 2.7.6 5.5.4 8.3l-.6 2.7q2.5.3 5 .3 5.4.3 10.7 1.6c2.5.6 4.7.6 5.3 3.3 4.8.5 9.5 1 14.3.6.4-1.5 1.4-2 2.9-2.5-2-1.4-5.3-1.6-6.8-3.9-1.4-2 .4-4 2.4-4.8 4.5-1.8 7.2-.5 11.6 0-.5-1.4-1.6-2.3-1.5-4 1.2-1.3 2.7-1.3 4.4-1.1.4 0 1.8.4 2 0v-1.4c1.4.3 6 3.7 7 4.9-.9 1.6-2 .8-3.5.3-2.6-.9-5.5-2.4-8.3-2 .2 2.4 3.3 3 4.3 5-1.1 1.5-3.2.4-4.8.2-3-.4-9.5-1.2-11.6 1.5 2.2 3.2 8.9 3 10.8 5.3-2 1.2-5 0-6.5 2.3l11.7 1.7.9 1.2c2 .5 4.3.2 6.3.3q3.2.1 6.3 1 2 .4 3.9 1.1c.7.4 1.4 1.2 2.2 1.4l1.9.3 1.1 2-.8 1.4c-.3.7.2 1.5.3 2.2q.5 2.5.5 5 0 5.3.3 10.3 0 3.8.3 7.3c.1 1.6-.4 3 0 4.7 1.8-1.5 4.4-1.2 6.6-1.2q9 .5 17.5 3.2l5 1.7q.9.2 1.5.8.3.5.2 1.2c-1.6 1.1-5.6-.5-7.5-.9q-7.4-1.5-14.7-2.5c-2.8-.4-6 0-8.6-1.3l-2 3.6c-1.2-2-1.1-4-1.5-6.2-1-5.9-.2-11.6.3-17.3.3-3.5-.3-7-.1-10.5-.8-.5-1.6-1.6-2.4-2-1.6-.5-3.3 0-4.8-.5l-1.3-.7q-1.5-.5-3.2-.7l-7.3-1h-3.3l-2.4-1c-4-.9-8-1-12-1.7-2.5-.5-5.3-1.2-8-.6l4.7 1.4q-3 .1-6.3-.4-2.2.1-4.3-.1c-1.8-.3-3.5-1.3-2.3-3.2-5.3-1.2-11-1.5-16.3-1.8-2 0-4.6-.7-6.5.2s-3.9 4.6-4.3 6.6c-.5 2.4 0 5 .2 7.3l.2 4.3v6q-.3 1.9-.3 3.6c.2 1.6.8 2.7 1.4 4.2l4.6.4 11.2 1.1q15 2.2 29.8 4.8l11.9 2c1.8.4 4.2.6 5.5 1.9-1.3 1.1-3 .5-4.6.3q-6.4-.6-13-1.7c-11.3-1.9-22.8-2.9-34.3-4l-8.8-.8c-2-.1-3.4-.5-5.3 0-2-1.3-7.1-1.2-9.7-1.6-1.4-.2-3 .3-3.9-.9 1.1-.9 2.5-.8 4-.9q1.5-.1 2.9-.4 2.5 0 4.8-.3c0-1.7-.6-3.2-.8-4.8l-.4-4.5c-.3-3.7.3-7.7.7-11.3a45 45 0 0 1 2.7-10.9q.6-.6 1-1.3.2-.7 0-1.5l10.3-1.7c0-1.7-.6-3.5-.8-5.3-.3-2.7.5-5.5.2-8.3l-.3-1.6c-.2-2 .2-3.8 0-5.7l-.4-7.2c-.7-6.4-.7-12.8-1.4-19.1v-3.6c-.7-7-.5-14-1.2-21q-1.5-12.7-1.7-25.6c0-4-.4-8 .9-12q-2.5-1.6-5.2-2.5l-6-3.2c-1.3-.8-3-1.4-3.8-2.6 1.6-.3 3.5.7 5 1.3l6.5 2.8 3.9 2c1.5-1 1.7-1.3 2.7.4l2.4-1.8-2-1.3c1.3-.8 4.6-1.1 5.2.7.3.8 0 1.5 0 2.3l-2.4 1.3c.6 1.7 3.4 2.3 5 2.9l2 1 13.9 7.4c2.4 1.2 4.7 3 7.2 4q-.1-2.4-.5-4.7c-.3-2.4 0-4.9-.2-7.3q-.7-9-1-18c0-3.5-.8-7.3-.4-11l.7-3.2-1-1 .9-3c-2.4-.1-4.9.6-7.2.8-3.8.4-7.7 0-11.3.9-3 .7-6.1 2.1-9.2 1.6 1.3-1.2 3.3-1 5-1.7-2.6-.9-4.9.7-7.5 1.2-3.1.5-6.2-.3-9.3.7.5 1 1.7 1.4 2.3 2.3.4.6.5 1.2 1.1 1.6q.7.3 1.4.2c1 3.4 2 9.8 1.4 13.3q-.4 1.4-1 2.7l5 3.3c-.4.3.2.2-.3.4-.7.3-3.6-.5-4.3-.8q-5.6-2.3-10.9-5.1-9.9-4.8-19.5-10.1l-8.7-5.2q-3.3-2-6.6-3.7c-1.2-.6-2.7-1.1-3.6-2.2-1.6-2-.8-5.3-.8-7.6-2.3-1.1-3.3 1.9-4.7 3-.3-.4-1-.9-1-1.4-.4-1.7 3-4 4.4-4.6v-9c-2.2-.2-5 1.8-6.6-.3q.1-.8.7-1.3c.6-.4 4.5-.6 5.8-1q.2-1.3.1-2.6c-.3-2-1.5-5.3.6-6.6 2.2.3 1.3 1.4 1.2 3l.2 1.2c0 1.8-.2 2.9.3 4.7 2-.2 5.5-2.3 6.8 0-.6 2.7-4.4 1.1-6.3 2.6q-.7 1.9-.2 3.7.1 2.7-.2 5.3l1.8 1.3.8 1.2c1 1 2.2 1 2.9 2.5l-.7 1.8-.2 1.5-.4.4c-.5-.8-.3-1.7-.7-2.5-.3-.7-1.4-1.3-2-1.7a7 7 0 0 0-.3 4.3q.6 1 1.7 1.3c1.3.6 3.6 2.2 4.8 2.5.3.2.7 0 1.1.2l2 1.1 4.9 2.4q9.4 4.6 18.4 9.8c4.5 2.5 8.7 5.4 13.3 7.7 0-1.7-.8-3.4-.9-5.2s-.2-4.1 0-6l.4-2.3c-.8-.2-1.7-.2-2.4-.9-1-.8-2.2-2.5-2.7-3.6q-.1-.7-.4-1.3c-.2-.2-1-.4-1.3-.5q.3-1 1-1.4l1.3.1 1.7-.4c1-.2 2 0 3-.3 0-1.2-.8-2-1-3.2l-.2-2.1c-.3-4.7 0-9.4 0-14v-13c0-2-.4-4.2-.3-6.3 0-2.7.6-5.4.5-8q-.7 1-2 .8c-3.1.1-3-1.2-3.7-3.7l-.6-2q-1 .1-1.4-.6c0-1.5 1.4-1.5 2.7-1.6 3-.3 5.8-.5 8.6-1.5-.1-3.4 1-5 2-8 1.8-4.8 4.1-8.9 8.1-12q3-2.1 6.2-3.8c.2-3.5 1.2-4.4 4-6.1V11c-2.1.3-5 2-6.5 0 .3-2 1-1.6 2.7-1.7q2 0 3.8-.7c.5-1.6 0-2.7-.2-4.2q0-1.3.2-2.4-.1-.8.2-1.6c1.2-1 2-.3 2.4 1m1 26.3c0-2.2-1.5-4.7-4-3-1 .8-1.2 2-1.5 3zm7.5 18.6c-.1-5.6-1.8-15-8.5-16q-3.2-.5-6.2.6c-1.7.4-3.1 1.7-4.5 2.8a26 26 0 0 0-7.3 12c-.4 1.1-.2 2.3-.4 3.5l-.6 1.7c2.5.2 5.2-.6 7.8-.9 1.3-.1 1 .2 2 .3.8 0 5.9-1.5 7-1.8l7-1.6zm-.8-13c0 1.4 1 2.4 1.4 3.7q1.3 3 1.8 6.3 0 1.4.2 2.6 1.4 0 2.7.7v1.7l4.6 3c-.1-1.6-1.6-3.2-2.2-4.7-2-4.7-4.2-10.1-8.5-13.2m2.4 22.3c1 2.6.8 7.9 1 10.9q1 10.5 1.7 21.2.4 3.8 0 7.4c0 .5 0 1.8-.3 2.2l-.6.4v-2.5l-1.5 3c-2.1-2.8-1.5-7-1.5-10.5q0-11.1-.6-22.2 0-3.8.8-7.5c.3-1.1.1-1.6 1-2.4m-9 44.2c-1-2.2-.7-4.4-.9-6.7l-.7-9.4c0-3.7.2-7.3-1-10.9-2-6.4-8.2-5.2-11.5-.7a15 15 0 0 0-2.6 6.7c-.2 1.5.5 3-.6 4.1-.7-1.5-.4-3.2-.1-4.8v-2.6c1-5.4 6-11.3 12-9.4 6.5 2 6.5 12.6 6.5 18v4.6c-.1 2.9.3 6-.2 8.7-.2 1-.2 1.8-1 2.4m-9.2-26.7c1.5.5 1.3 1.3 1 2.7q1.3.3 2.4 1c2 1.6 2.4 6.2.9 8.1-1.5-1.4-.6-4.3-2-6-1.2-1.8-3.5-1-4.4.6-1.1 2-.4 4.7-.9 6.8-.2 1.2-1 2-1.4 3.1l3.4-1c2-.4 6.2.7 7.2 2.3-1 1.3-2 1.5-3.6 1.9-.4 1.9-1.9 4.2-4.1 2.8-.8-.5-1.1-1.6-1.5-2.4-1.4 0-2.7.2-4-.5-1.2-2.6 1.5-4 2-6.2.9-4-1.3-7.5 3.3-10 .3-1.4.4-2.4 1.7-3.2m2 17.3q-2-.3-3.8.3l1.4 2.6c.9-.7.7-1.3 1.3-2.1zm-4.8.7c-.9-.2-1.2-.2-1.8.3q1 .1 1.8-.3m-67 11.6c.7 1.3-.5 2.4-1.5 3.4l-7.7 7q-5.3 4.8-10.4 9.8c-4.2 4.3-7.8 9-12 13.3-2.7 2.7-5.8 4.8-8.6 7.4 5.2.6 8-5 11-8.3q2-1.8 4.2-3.5 1.3-1.1 2.5-2.5l5.5-4.8 8.3-7q2.4-1.8 4.6-3.7c1.1-.9 2.2-2.1 3.7-2.1.1 1 .3-.3.2.6s-1.5 1.9-2 2.4l-5.6 5.3c-6 5.7-12 11.6-18.5 16.8q-1 .9-2 1.3l-1 .1c-.6.3-1.3 1.3-1.8 1.8-1.3 1-2.8 1.5-3.7 3l1.3 1.3-.7 1.3v1.3q0 2.3-1 4.4c-1.3-1.4-.7-3.8-1.1-5.5l-3.9 2.5v1.6c-.8 1.8.2 4 .3 6l-.1 3.6.5 3.7c.5 4.1.4 8.3.9 12.3q.2 2 0 4 .3 7.2.1 14.3v47.6c0 1.7.4 5.3-.5 6.7-.8-1.2-.8-4.8-1-6.4l-.4-14c-.2-10.2-.2-20.5-1-30.6l-.1-9q0-2.2-.2-4.3l-.3-1 .2-1.3q.1-2.2-.2-4.4c-1.2.7-2.2 2-3.3 3-3 2.6-6.2 5.8-9.8 7.7-1.3.6-2.6 1.8-4 1.7-.4-1.5 2.5-3.2 3.5-4.2q3.5-2.9 7.1-5.5c1.4-1 3-2.7 4.6-3.4l2.1-.9V161q0 .6-.2.7c-.3 0-.3-1.5-.3-1.8q-.5-3.1-.5-6.2c0-1 .3-2.2 0-3-2.6.2-2.7-1-3.8-2.8-1.2 0-2 .1-2.6-.9-.2-1.7 1.3-2 2.5-2.5l3.4-1.3c.3-.1 2.3-2 2.4-2.2l.1-.9c.4-.9 2.4-2.8 3.1-3.6l7.6-7.7q9.1-8.7 18.8-16.8c3.7-3.1 7.2-6.5 11.3-9.2m-72.9 5.9c1 1 .4 1.5.2 2.8v2l1 9 .3 2.6c2-.1 2.3 1.6 2.6 3.3.4 3.5-1 7-1.2 10.3l1.3.4c1.6.7 1.2 4.9 1 6.3 1.7.2 2.2.5 2.4 2.3q.2 1.5-.3 3l-.4 4q-.2 1.6-.7 3.3c-.2 1.7-.3 4-1.5 5.2-1.6-1.2-.8-2.7-1-4.3l-.5-1c-.2-1.2.7-4.2 1-5.6q-2.2.6-2.2-1.6c0-2.8 1.5-5.5.7-8.2-2 1.4-2.7-.1-2.5-2.1v-2.7c.5-3 1.6-6.4 1.1-9.5l-1.3-.2-2-8.9c-2.8 3.7-3 9.5-2.9 14 0 2 1.1 3.5.2 5.4h-1.6a45 45 0 0 0-.3 16.2c.2 1.3 1.2 5.6.9 6.6q-.3.5-.6.6a17 17 0 0 1-2.9-7.9v-4c-.3-3-.6-5.8-.1-8.8.3-2.2.7-4.3 2.5-5.8 0-2.4-.4-4.9-.2-7.3q.4-7.2 3.4-13.8c.8-1.8 1.6-5 3.6-5.6m135.1 3c-1.8 1-6.3 2-8 .7 1.8-.7 6.6-2 8-.6m-27 16c-1.8.1-5.1-1.9-6.9-2.7q-8.7-3.8-16.6-9c-1.7-1-4-1.9-5-3.7l.9-.3c1 0 5.8 2.3 7 2.8q7 3.5 13.6 7.7c2.4 1.5 5.2 3 7 5.1m40.1 5c-1.5 1.3-4.3 1.4-5.5-.3q-.1-2-.5-4-.3-3.6.3-7c.3-2-.2-3.8 2.8-4 1 0 2.5.7 2.7 1.8l-.2 2.2c.6 3.6 1.2 7.7.4 11.3m-2.1-12.5h-2c-.1 2.1.4 4.1.6 6.2 0 1.6-.4 3.2-.4 4.7h2c.1-1.3-.4-2.7-.4-4-.1-2.3.4-4.6.2-7m-65.5 22.2c10.4-1.7 16.6 9.5 13.9 18.6-1.3 4.2-4.8 9-9.4 9.8l-2.3.2-2.7.5c-7.7.1-13.4-7.6-12.4-15 1-6.8 6-13 12.9-14m1 2.5q-2.6.3-4.5 1.5c-1 .6-1.2 1.7-1.9 2.5-2.7 3.4-4.3 4.2-4.8 8.8-.5 5.6 4.6 11 10 11.2 7.4.3 13-8 12-14.8-.7-5.2-5.2-10.1-10.9-9.2M85.7 147H84l.4.8c.7-.2.8-.1 1.2-.8m-2 .3h-1.5l1 1.1zm-43 1.6c1 1 1.3 1.2 1 2.7-1.4-.2-1.7 3.3-1.8 4.3a32 32 0 0 0 0 6.6c.2 3.1.8 4.1 0 7.3l1-.2-.6 3.8c-1-1.3-1.2-3.2-1.6-4.8-1.3-4.5-2-8.7-1.5-13.4.3-2 .8-6 3.4-6.3m96.9 1.7-2.8.1c-4.6.9-4.7 4.4-7.5 7.2l.7 1.7c.8 2 1 3.9 2.9 5.4 1 .8 2.2 1 3 1.8-2.5 2.2-5.2.4-6.9-2a6 6 0 0 1 0-7q-.7-1.1-.7-2.6c.2-3 3.5-5.7 6.3-6.4 1.7-.4 4.7-.4 5 1.8m-47.3 3.8c1.4 1.6 1.5 6.5 1.3 8.7q-.6 9 .1 18c.1 2.2.8 7.5-.1 9.4-1.3-1.9-.8-7.9-.7-10.3l-.2-7.7v-3.3c-.7-5-1.4-9.8-.4-14.8m151.1 4.1q-.3.4-.8.4c-1.5 0-5.6-2.5-6.5-3.7 1.8-.3 6.2 1.9 7.3 3.3m-181 4.5q1.6 2.3 1.9 5.2c.8 4.9-.4 9.4-1.1 14.3q.9 0 1.7.2c1.4.7 1.7 4.4 1.8 5.8l.3 2-.2 1.6c-.2 4-.2 7.6-.9 11.6h2.7c-.4-2-.7-5.3.7-6.8q1.2 2.7 1 5.5l-.8 2q0 1 .3 2 .3 2.2.3 4.3c0 2.5-1.2 5-1.1 7.4 1.7 0 2.1 1.4 2.3 3 .3 2.9-1 5.7-1 8.6.8-1 1.4-1.2 2.7-1.2 2.6 3.2-1.4 8.5-2.2 11.8 2.2.8 1.3 3 .6 4.6a24 24 0 0 1-2.3 4l-1.1 1.2-.3 1.5c-.2 1.1-1.3 2.1-2 2.8-1.2 1-2.2 2.3-3.7 1.9-.3-1.7.4-1.5 1-2.9q0-.7.3-1.3c.4-1 1.4-1.9 2-2.6q1.8-2.2 3-4.5h-1.6c0-1.4.8-2.6 1.3-3.8 1.2-2.7 2.8-5.6 3-8.5-1.3 1.4-2.3 3.3-4 4.4-1.4-2-.6-3 0-5.1 1-3.1 2.7-7 1.3-10.2-.7.3-.9.4-1.6.3-1-1-.3-1.8-.3-3l.8-8.4c.1-1.5.4-3.1-.5-4.5l-2 .6c-1.5-1.7-.7-2.2-1-4V200c.6-4 1.8-11.2-.2-14.9h-1.8c-1-1.2-.4-1.3-.5-2.6l-.4-1q0-1.2.3-2.4c.5-3.1 1.2-6.4 1-9.6 0-2-1-4.9.3-6.5m207.8 9.5c-1.6.1-3.2-.9-4.7-1.5a68 68 0 0 1-9.8-4.8c-1-.7-2.4-1.3-3.2-2.3 1.3-.9 3.2.4 4.5 1q4.8 2.2 9.4 5c1.3.6 3 1.3 3.8 2.6M41.3 172c1.4 2.2 2 5 2.8 7.4.2.8 1 2 .9 3q-.3.8-1 1.2l-3.4-2.8c-.9 1.7-.6 3.8-.2 5.6L43 196q.5 1 .3 2l-.4 1c0 .1.4 2.4-.7 2.2l-.2-.2h-1.4c-1 1-1 2.1-1.2 3.5-.6 4.3 1 9.1 2.2 13.2.7 2.1 2.3 5 0 6.6l-2-.8c-.3.6-1.3 3.7-1.3 4.3 0 1.6 2 6.7 2.8 8.4.7 2 2.9 4.7 1.2 6.5l-2.4-.9c-.1 2.8 1.9 5.1 3 7.5l.9 1.9L45 253c.4 1-.1 2.2.6 3.1 1 1.4 2.8 1.9 4 3 0 1.6.6 3.1 1 4.7q.6 3 .5 6c0 1.3.2 2.7-.5 3.8-1.3-1.5-1-3.9-1.3-5.7-.3-2.4-1-4.5-1-7q-1.1-.1-2.2-.6c-2-1.1-4.7-4.3-4.5-6.7q.1-.8.4-1.4c-1.7-2.6-4.2-5.5-4.7-8.7-.3-2 .2-4 2.4-4.3q-.6-2-1.7-4a24 24 0 0 1-2.5-8.3c-.1-2 .2-5 2.6-5.6q1-.2 2 0c-1.6-5.6-4-11.4-3.3-17.3.4-2.9 1-5 4-5.7-.2-2-1-3.8-1.5-5.7q-1.2-3.9-1.8-7.9c-.4-2.2-.3-5 1.8-6.4.9 0 1.3.2 2 .7 0-1.5-.8-2.9-.7-4.3 0-.8.4-2 .7-2.7m93.8 7.5v1.6l3.4 2.4 1.5.2c.8.1 1.7.8 2.4 1.2q5.8 3 11.2 6.8c1.2.8 4 2.9 4.8 4l-1.9 1.3-3.2-1.7q-5.2-2.9-10.1-6c-3.2-1.9-5.9-4.7-9.5-6l-1.3 1.2-1.6-.6c-2 1-3.8 3-5.7 4.3-.6.5-1.6 1.5-2.3.8l-13.6 12.7 4.6-.6q1.4.8 1.8 2.2c-.7.8-1.2.5-2 1-.6.3-1 1.2-1.5 1.7.8.6 1.7.7 2.2 1.7-1.3.7-2.2.5-3.6.6q0 1.6.3 3l.4 9.3v9q0 11.5-.3 23c2 .8 1.7 1.1.5 2.6 1.5.2 3 0 3.8 1.3l-1.2 1.4c.5 2.8 1.6 6.7 0 9.2-2.6-1.5-.9-7-1.4-9.5l-2.3.6v5.7q-.4 0-.7-.2c-.2-.2-.1-1.2-.2-1.5v-4q-1.2.2-2.5.2l-1.3-.4q-1.3-.2-2.7-.2l-.6-.1q-.4-.2-.6-.5c.9-1.2 3-1.2 4.4-1.7l-2.6-1.3c1.5-1.7 4.6-1.2 6.6-1.7l-.7-8.3c-.3-4-.2-8-.6-12l-.4-2.6c-.2-5.8 0-11.6-.6-17.3q0-1.9-.2-3.7c-1 0-4.3.3-4.9 0q-.5-.2-.9-.6l.5-1.3c.1-1.3-1.3-1.8-1.8-2.7.9-1.5 3.4-1.2 5.1-1.6.6-1 1.3-1.5.4-2.4l5.2-5.5q5.3-5.1 11.1-9.5l4.5-3.2c.4-.3 1.2-1.1 1.8-1.1l1.3.4v-1.3c.7-2 3.8-1.5 5-.3m119.4-.2c2 1.1 2 3.1 2.3 5.2q.6 4.9.2 9.9-.2 2 .1 4l-1 .7c-1 .1-4-.6-4.8-1-.6-1.2 0-2.1-.1-3.4q-.4-4-.2-8c0-1.4 0-3.1.8-4.3.9 1.3.4 3 .7 4.5.5 3.3.8 5.5.2 8.8l2.1.6q-.6-4.2-.3-8.6c.2-1.7.8-3.4-.1-5-.7-1.1-1.6-1-2.5-1.6.6-1.3 1.2-1.7 2.6-1.8m38.8 1c-1.1-.5-3-.6-4 .4l3 2zm2.3 1-1.4-.6v1.7c.9-.2 1-.3 1.4-1M81.8 184q-1.7 2.4-4 4-3.1 3-6.5 5.3l-1.9.7-1.8 1.4c-.2-1.5 1.5-2.9 2.6-3.9 1.7-1.5 3.3-3.3 5.2-4.4l2.4-1.4c1.2-.7 2.6-1.7 4-1.7m64.1 11q-1.7.1-3.3-1c-2.1-1.3-4.5-2.3-6.5-3.8-1-.8-2-1.2-2.2-2.5 1.3-.8 2.6.3 3.7 1 2.1 1.2 7.3 4.3 8.3 6.3m-15.9-5.6c-.8 1-3.5 3.8-4.5 4.5q-1.9 1.1-3.7 2.4c-1.3 1-2.8 2.2-4.4 2.5 0-1.2 1.2-2 2-2.7q3.2-3 7-5.7c1-.7 2.5-1.8 3.6-1m158-.2c.9 1.3.8 3.2 1 4.8.3 2.8.4 5 0 7.8 0 1.1.3 1.8-.3 2.8-.8-.9-.5-1.3-.7-2.5q-.6-4.5-.6-9c0-1.4-.2-3 .6-4m-122 9.2v1.7c-1 .6-2.2.6-3 1.5s-.2 1.2-.3 2l-.3.6c-.2.7.2 1.6.3 2.3.5 2.7.4 5.5.7 8.3s0 6 0 9v22.9c0 1.4.2 2.8-.7 4q-.4-1.7-.4-3.4-.3-1.6-.4-3.3l-.2-8.3q-.5-7-.7-14.3c-.1-5.6-.4-11-.1-16.6l-4.2.5q.1 3 .7 6.1.4 3.8.4 7.7c.3 4.2 0 8.4.2 12.6q.2 6.7.2 13.6v6.3l-.4 2c1.8.2 5-.6 6 1l-4.1 1.4c1.9.5 5.2-.5 6.4 1.3-.7 1.3-1.7 1.1-3 1.3-2.6.3-4.1.6-6.7 0-.3 1.5.2 2.9.3 4.4q0 2.4-.5 5c2.4.4 8-.4 9.7 1.3-1.5 1-3.5.6-5.2.6l-10 .2q-19 .4-38 1.1l-6.6.6-4.6-.2c-2.1 0-3 .8-4.6-1 1.1-2.2 4.4-1.8 6.5-2.3l-.4-2.4c-.3-2.2 0-4.9.8-7 1.7 2.4 1.1 6.5 1 9.2h16c-.1-1.4-.7-2.8-.8-4.1v-8.4l-.2-13-.2-9c0-1 .3-2.5 0-3.5-.3-.8-1.3-1.4-1.7-2l1.6-1.7q-.3-2.7.3-5.4c1.8-8.8 9-17 18.9-14.3 7.8 2.1 11.4 10.6 12 18 1 .7 1.6.6 2.6 1.7l-1.3 2.4q-.5.4-.8 1c-.3 1.1.1 2.8.2 4v7.9l.1 16c.2 2.4.7 4.8.4 7.3 0 1-.5 2-.5 3h2.8l-.6-4 .1-3.3c.1-.6.6-1.2.3-1.9l-1-1.2c1-.8.7-1 .3-2l3-2c-1.2-4.8-.4-10-.7-15q-.4-7.7-.6-15.5c-.1-5.8.3-11.6.2-17.3l-1.4-.7-.7-1.2c-.4-.7-1.3-1-1.8-1.6q-.4-.9-.6-1.9c1-1.2 1.9-1 3.3-1.4l8.3-1.4c1.6-.2 2.6-.5 3.7.8m113.2 1.4c-1.2.9-4.3 4-5.5 4q-.5-.4-.5-1c0-.7 1-1.3 1.4-1.7.8-.8 2.7-3 4-2.3zm-9.1.4c1.6 2-1.1 8.4-3.3 9.3-1.5-2.2 1.5-5 2-7.1-1.5.3-2.6 1.6-3.6 2.7l-2.6 2.7c-1 1.3-2.7 4.8-3.2 6.4l-1.4 4c0 .4-.1 1.4-.5 1.8l-.4.2c-.7-3.4.2-6.9 1.7-10q.8-1.6 1.8-3.1c.1-.2.6-1 .8-1 .5.1.6 1.5.7 1.8q0-1 .2-1.7c.8-2.4 5.2-7.1 7.8-6m-109 .8-1.6.7c-1.3.4-2.6 0-3.8.7 1 1.3 2.2.3 3.6.3.5 0 1.2.4 1.6.1s.2-1.4.1-1.8m124 0c1 3.6-1.7 7-3.1 10l2.5-.6 1 1c-.5 2.2-1.9 3.7-3 5.6-.6 1.3-.9 2.5-2 3.6-1.5-1.6 1.2-4.9 2-6.5-3 .7-4.2 5.5-7 6.3-1.1-1.6.5-3.7 1.4-5q2.8-4.5 5.2-9c1-1.6 1.7-3.9 3-5.3m16.7 1.2c.2 1.5-.6 2.4-.7 3.7 3.5-2.4 8-4.8 12.3-4.4 3.6.3 6.4 3 5.7 6.8-.7 4.5-4.8 8.3-8.2 11q-1.6 1-3 2.3c1.7.1 3.9-.3 5.2 1q.5 2-.6 3.5c-.4.5-1.8 1.6-1.8 2.2 0 .4.6.6.7 1-.9.7-1.2.3-2.1.6-1.7.6-3 2.3-4.8 2-.1-1 .8-1.6 1.5-2.2 1.5-1.5 5.2-3.7 5.4-5.8-2.4-1.3-5.4.8-7.6-1 .4-2.3 2.4-3.6 4.1-5 2.3-1.8 4.8-4 6.5-6.4 1-1.4 3-4 1.7-5.7-1.2-1.6-3.8-1.5-5.5-1.1q-5 1.2-9.5 4.1-.6.6-1.3.9-.4-.2-.8 0c-1.5.5-1.4 1.8-3 .3.3-2.4 3.1-3.9 3.4-6.2-5.5 2-9.2 7-13.3 11-.2-1.9 1-3.5 2.1-4.9q3.4-4 7.8-7c1.7-1 4.1-2.6 5.8-.7M108 204.7a6 6 0 0 0-3.9.3l1.4 1.2c1.4-.2 2.4.1 2.5-1.5m1.5-.1.3 1.2.8-1.1zm38.4 20.7a24 24 0 0 0-2.8-10.6c-.8-1.4-2-3-3.4-3.9q-1.7-1-3.6-1.7c-9.6-3.4-15.8 8.8-16.4 16.5h1c.5.1.4.4 1.4.6.5-.6 0 .3.4-.3.2-.2.6-3.9.8-4.6 1.2-4 3.4-8.2 8-9 1.6-.3 3.6-.5 4.7 1-1 .6-2 .3-3.3.5q-1 .3-1.9.8c-4 2-5.6 7.2-6 11.4 1.5.7 3.3-.1 4.5 1.3-1.4 1.3-3.6.2-4.8 1.6l1.4 1.4-1.5 1q0 1.7.2 3.3l.4 9.6v7c.4 4.5.9 9.3.5 14 0 1-.4 1.8-.4 2.7h22.8l-2-38.6-2.4-2.4c.6-1 1.3-1.2 2.4-1.6m-42.4-13.7c1.3 1.9.9 6 1.1 8.4q.5 6 .7 12c.2 3-.2 6.1.1 9.2.2 2.7 1.1 8.3-.6 10.5l-1-.2c-.5-.4-.7-1.7-.8-2.3-.3-2.2 0-4.4 0-6.6q-.1-10.8.1-21.6c.1-2.5-.7-7.4.4-9.4m145.6 9.3c.7-1.9.5-3.6 2-5.2 2.6.4 2.5 3.7 3 5.8.3 1.2.7 2.3.1 3.4-1.7 0-1.6-2.6-2.6-4v5.4c-1-.1-.6.3-1.1 1-1.3-.5-1.8-2.3-2.4-3.5-1.3-2.7-2.8-6.3-5.6-7.6-1.7 1.8-1 5.2-.5 7.4.2 1.2.8 2.2.2 3.3q-1-1-1.4-2.4c-1.2-2.6-2.6-8.2 0-10.3 1.4-1 2.7-.4 3.9.4 2 1.5 3.3 4.1 4.4 6.3M55 214.5q.4 1.8.6 3.8c.4 3.3 1 6.5.1 9.8-1.8-2-1.3-7.2-1.2-9.8.1-1.3-.3-2.9.5-3.8m229.5 9a16 16 0 0 1-4 5.8c-.4-.7-.1.3-.4-.4-.7-1.8 3-5 4.4-5.5m11 .4c.2 1.5-.7 2.3-1.6 3.4-1.6 1.9-3.9 4-4.7 6.4 1.8 0 5.5-2 6.5-1.7q.3 0 .5.4c-.5 1-3.3 3.3-4.4 3.4-1.3 0-2.5-.5-3.8 0-1 .2-3 2.6-3.6 3.5 2.4 0 4.6-1.2 6.8-1.7l2.3-.4c1.1-.5 3-1.5 4-.5-.7 1.4-4.1 3.3-5.7 3.2q-.8-.2-1.7-.7-.4 1.1-1.2 2c-2.6 2.3-6.2.2-8.7 2.3-1.4 1-5.5 5-6.4 6.3l-2.9 6.1c-1.2 2.5-2.4 4-3 6.8-.3 1 0 2.2 0 3.2q.1 1.6-.3 3c-.3 1.7-1.2 3.3-1.4 5q1.8-1.7 3.3-3.5 4-3.4 7.3-7.6c.6-.8 2-3.7 3-3.8q.6 0 1 .4c-.2 1.7-2 2.9-2 4.6q2.2-1.1 4.2-2.4 3.5-1.3 6.5-3.4c3-2.5 5-5.6 8.4-7.6 1.2-.8 5-3.2 6.5-2.8q.5.3.7.8c-.3 1.9-2.7 2.3-4.2 3-2.8 1.5-4.9 3.8-7 6 3.2.8 9.4-2.6 11.9 0-.8 1.5-2.5 1.5-4 2q-3 1-6 1.2c-1.5 0-3.2-.5-4.7-.4-1.7.2-3.5 2.1-5 3q-3 1.8-6.1 2.9c-1.3.4-3 .7-4.2 1.4-.8.4-2 2.6-2.7 3.3l-6.3 8.7c-.8 1.2-2 4-3.7 3.9-.9 1-1.1 1.5-2.6 1.6l-.7-1c-.3-1.4 1.2-4.3 1.7-5.6a96 96 0 0 0 3-9.6c.5-1.9 1.1-3.8.7-5.9-.7-3.3-2.6-6-3.7-9.2-.4-1.2-.9-4.4-1.4-5.2-.9-1.1-2.6-1.9-3.7-2.8-1.9-1.6-4.3-5.8-3.8-8.3 1.4.4 1.8 1.7 2.7 2.8 1.3 1.7 3 3.8 5 4.6 0-1.4.5-3.2.4-4.7-.2-2.7-2.7-7.9-.2-10 1.2 1.5 1.3 5.6 2 7.7l1.7-2.1.4-1.7a9 9 0 0 1 2.3-3.7c.6 1.9-1.2 6.7-2.3 8.4-.4.7-1.4 1.4-1.6 2.1-.3 1 0 2 0 3 0 1.6-.5 3.3-.3 5s2 4.7 2.8 6.5c.5 1 .7 2.2 1.4 3.2q1-2.9 2.2-5.6c1.2-2.4 2.9-4.4 3.7-7q.4-1.1.6-2.4a36 36 0 0 1 4.4-9.3v2.4c-.4 2.1-1.7 4.3-1.6 6.5q3.6-3 7-6.4 1-.8 1.7-1.7l.7-1.8a32 32 0 0 1 4-5.8c1.1-1.3 4-4.3 5.9-3.7m-56.2 4 .6-1.3c1.8.3 3.6 3 3.7 4.8h-2c-2.3-1.2-4.7-2.9-7.2-3.7-1.4-.4-2.8-.7-4 .3 1 2.8 3.2 4.4 4.7 6.7-.7.2-1 .2-1.5.9-2.2-1.5-7-6.7-4.6-9.3 2.3-2.7 8 0 10.3 1.6m85 6.8q1.7.7 2.8 2c0 1.8-.8 3.4-2.7 3.6l1.4-2.3c-1-2.2-3.5-.7-5-2.3l.2-1c.3-.6 1.3-1 1.9-1.4q1.9-1.1 3.2-3c-1.9-2.1-8.1-.5-10.6.3-1.3.5-3 1.7-4.2.8 2.6-3.4 10.4-5.1 14.3-4q1.6.3 2.3 1.6c1.1 2.7-1.6 4.6-3.5 5.7M124.7 229c-.9-.7-.9-.7-1.9 0zm-.3 2.2h-2.6q-.1 1.4.2 2.6l.1 8.3c.2 4.6 0 9.1.2 13.7q.4 4.3.3 8.6c0 1.2-.5 2.3-.5 3.4h3.8l-.6-2.7q-.4-3.5-.5-7c-.3-5.8.2-11.6-.2-17.3-.2-3.1.5-6.6-.2-9.6M56.3 238c1.4 1.7 1 6 1.3 8.1.5 3.3-.1 6.7.2 10l.9 5-.1 2q.2 3.6.7 7.3v3.3c.2 1.9.7 4.8-1.4 5.7-2-1.8-2-6.5-2-9q0-3 .3-6 .7-3.4.7-7-.2-3-1-6l-.1-3.6c-.2-2.6-1-7.6.5-9.8M319 256c0-2 2.5-1.9 4-2.3 2.7-.7 6-2.1 7.3-4.8-1.7-4.6-9.6-1.7-12.6-3q1.4-1.4 3.4-1.7c3.3-.7 11.2-1.1 11.9 3.7.6 4.6-5 7.7-8.7 8.5-1.7.4-4 1-5.3-.4m-33-6q.3 2-1.6 3c0-1.3.6-2 1.6-3m-3 4.2c.7 1.1.3 2.1-1 2q0-1.3 1-2m-207 3.3q0 1-.8 1.4c-.6.2-1.6-.3-2.2-.4q-1.9.1-3.5 1-2.7 1.5-4.7 4c-.7 1-1 2-2.1 2.4-1-1.4.2-3.2 1-4.5q.9-1.6 2.2-2.8c2.4-2 7.8-4.3 10-1m11-1.6c.8 1.3.5 3.3.5 4.9l.6 5v3c0 1.6.4 3-.7 4.4-1.3-1-1.3-2.3-1.3-3.8l.5-7.6c-.1-2-.5-4.2.5-6m-62.2 13.8c-2.4-2.1-4-6.7-6-9.5 0 2.3 1.5 4.7 2.3 6.8.4 1.1 1 2.2.3 3.2-2.5-1-4-7.3-4.6-9.8-.3-1.2-.7-2.5 0-3.7 1.5-.5 2.4.5 3.3 1.6q2.9 3.4 4.7 7.4c.7 1.4 1.7 3 0 4m4.6-11.6c1.6 1.2 1.6 3.2 1.8 5q.1 1.1.4 2c.1 2.6-.6 5.4.2 7.8 1.3-2.5 3.9-5.9 7-6.1 3 2-.2 6.5-2 8.2-.4-1.9 1-3.5 1-5.4-2 1.4-3.4 3.5-4.7 5.4q-.7 1.6-2 2.3c-.9-1-.6-2-.2-3.1l-1-.8c-.5-.6-.3-2-.5-2.8-.3-2.2-.1-8-1-9.4-.5 1.4-1 4.5-2 5.4-1-1.8-.3-7.2 1.6-8.3q.7-.3 1.4-.2m78.2.6c.7 1.2 1 3.5 0 4.6-1.2-1-1.1-3.7 0-4.6m119.9 1.2c-1.9.4-5.4.3-7-.7 1.8-1.1 5.4-.7 7 .7m81 9.6q1.1 1 1 2.6c-.5 2.4-5.7 3.2-7 1 1-1.7 3-1 4.4-2-1-.7-1.5-1-1.8-2.3 1.4-2.2 6-1.8 8-3.6-1.2-3.5-7-2.2-8.7-4.3 2.5-.2 5.2-.8 7.6.2 2.5 1 5 4.2 2.3 6.4-1.6 1.3-3.9 1.5-5.7 2M20.7 272c-1.6-.2-2.8-1.7-4.3-1.8.5.4 3.2 2.8 3 3.3l-.6 1c.9.4 1.3.3 2.2 0 1.3 1.3 3.2 2.9 3.6 4.7-.6 1.1-1.1 1.3-2.3 1.9-.6-3-5.8-2.5-6.4-5.6 1.3-.4 2.4.2 3.8.4-1.1-1.7-3.4-2.7-5-4-1.4-1-2.5-2.6-3.6-4-1.1-1.2-2.4-1.9-2-3.7 1.3-1 2.3-.5 3.5.2a34 34 0 0 1 6.3 4.7c.9.8 1.8 1.7 1.8 2.9m227.1-8.1c.8 1 .8 2.3 1 3.6q.3 5 .1 10c0 1.5 0 3.6-1 4.7-1-1.2-1-3.2-1-4.7.1-2.2-.2-4.5 0-6.7l.5-2.3c0-1.6-.5-3.2.4-4.6m-47.5 3.6c-1.7 1-6.2.6-7.7-.7 1.4-1.3 7-1.4 7.7.7m-119.8-.7q.2 1.8-1.6 2.2l-1.2-1.2q.9-2 2.8-1m133 6c-.8 1.9-2.5.9-4 .7-2.7-.3-7 .2-9.4-1 .5-1.4 2-1.3 3.5-1.4 2.4-.2 8.5-.5 10 1.7m81.4-1.3c-.2 1.2-1 1-2.1 1.3-2.5.7-3.4 1-6.1.7 1.4-1.8 6.2-3.2 8.2-2m-251.7 1.8q1 1.8-.7 3l-1.6-.8c-1.3.6-2.6 2-4 2q-.4-.4-.5-1c0-.5 1-1.2 1.4-1.5 1.6-1.2 3.4-2.1 5.4-1.7m38.6-.3c2-.1 1.3.8 2.7 1.6q1.5.8 3 .9 1.9 0 3.6-.3 3.7-.2 7.6 0l3-.3h35q7.3-.2 14.6.3c2.4.3 6-.1 8.2 1-1.3 1-4.4.8-6.2.8l-15 .3-41.6 1q-4.6.4-9.3.4c-2.6 0-5.7-.3-8.2.5.5 1.3.1 1.7-.5 3 1.7.3 3.5 0 5.2 0l10.8-.4 23.3-.1 10.7.1q6.7 0 13.4.7c1.8.1 4.2-.1 5.7 1-1.4 1-4 .8-5.8.8h-13q-11 0-22 .5l-9 .2q-9 .7-17.9 1l-11 .3h-3c-1.8.2-4.7 1-5.6-1.2 1-1.2 3-1.3 4.6-1.5l7.4-1c1.4-.1 2.8 0 4.2-.5-.8-1.3-1-2.3-1-4 1-.7 1.2-.7 1.7-2 .5-.2 3.9-1.3 4-1.5zm112.5 3.5c-1.4 1-4.7 1-5.5-.7 1.3-1.2 4.7-1 5.5.7m87.9-1c-2.5 3-8.2 4.9-11.3 7.6l2.6.7c.4 1.2-.2 1.6-.7 2.7 3.4 0 6.8-.5 10 1 1.5.6 2.7 1 3 2.6q-1.2 1.2-2.7.3-3.4-1.4-7.1-1.7c-2-.2-3.5.5-5-.9l1.3-1.7-1-.5c-.6 0-5 1.5-5.9 1.8-1.2.4-2 .8-3-.3 0-1.5 1.5-2 2.3-3.1 2.8-3.5 7.7-5.8 11.9-7.4 1.8-.7 3.7-1.7 5.6-1.1m-263.7 4c-1.3.9-3.7.4-5.3.2a21 21 0 0 0-10 .8c3 2 9 1.5 11.6 3.3-1 1.1-6.4 2.3-8.2 2.7-1 .3-2 .7-2.7 0 .9-1.3 2.2-1.6 3.5-2.4q-3.2-.5-6.2-2c-1-.6-1.7-1.7-.9-2.8s2.2-1.4 3.3-1.7q5.4-1.4 10.7 0c1.6.4 3.2.4 4.2 1.9m213.7 4.6q-.9 1.6-2.8 1.5c-2.2 0-5-.5-7.3-1-1.3-.2-2.4-.3-3.2-1.5q1.3-1.6 3.5-1.4c2.5 0 8.1.5 9.8 2.4m-180.3.4c-1 1.5-3.2 1.1-4.8 1.3l-15.5 2c-1.2 0-4.3.8-5.2 0q-.4-.3-.5-1-3.6.7-7 1.8L8.1 291c-1.8.4-5.4 2-6.9 1l.2-.8c.3-.7 3.6-1.5 4.5-1.8 5.1-2 10.4-3 15.8-4.2 1.8-.3 5.3-1.6 6.3.5 2.7-.6 5.2-1.6 8-2q4.7-.8 9.4-.3c2 .1 4.9-.3 6.6 1m79.6 5.6c-1.2 1-2.4.6-3.8.6l-7.7.1a384 384 0 0 0-26.6.7c-2.4.1-8.6 1-10.6-.4.6-1.3 1.8-1.1 3-1.3q4.4-.7 8.6-.8l8.6-.5c5.7-.2 11.4.2 17 .2q3 .1 6 .5c1.8.2 4-.1 5.5 1m-69.1 1c-1.1 1-2.8.9-4.2 1q-4.9.8-9.7.8c-1.3 0-3.7 1-4.3-.7 1.1-1.2 3-1.2 4.6-1.4 3.5-.4 10.5-1.4 13.6.2m116.3 7.3c-.5 1.5-1.8 1.1-3.1 1q-4.6-.1-9.2-.6l-7.8-.6q-13.6-.8-27.3-.8-4.4 0-8.6.5-2 .4-2.7-1.1c1-1 2-.7 3.3-1l9.3-.7q8.4-.7 17-.3t17.4 1.3l8.2 1.3q1.8.1 3.5 1m-95.3 1.2c-1.5 1.7-7.3 1-9.6 1-1.2-.1-2.8 0-3.4-1.2 2-1.6 7.3-1.2 9.7-1 1.1 0 3 0 3.3 1.2m120.9 2.8c-2 1.6-7.8.4-10.2 0-1.3-.2-2.4-.2-3.1-1.3 1.8-1.7 7.7-.7 10.1-.2 1.3.2 2.7.2 3.2 1.5m70.7 2.3c-1.5 1-3.9.3-5.5 0q-6.2-.8-12.5-1.1c-1.6 0-4.4 0-5.2-1.5 1.2-1 3-1 4.6-1 4.3 0 9 .6 13.3 1.5.8.2 5 1 5.3 1.6z" clip-rule="evenodd"/><path stroke="#dd3e3e" stroke-linejoin="round" stroke-width=".1" d="m156.5 256.2-1.4.3m48.4-255-.8 1.6.5 1.4q-.1.7-.4 1.3 0 1.3.4 2.4l3.5-.7c1.7-.6 3.5-1.4 4.7.3-.4 2.3-2.6 2-4.5 2.2q-1.8.1-3.4.8V22c3.3 1.1 3.8 3 3.2 6.3.8.5 1.7.5 2.5.8q1.6.6 2.8 1.6c4.6 2.9 8.5 9 10.2 14.1 1 2.8 2 5 1 7.8.4.4 1 .2 1.6.5q1.2.5 2.2 1.2l6.3 4.4 2 1.6 1.6.6q1 1.5 0 2.9c-2.1.6-3.8.6-4.4 3l-2-.5-.1 4.2c-1 7.8-.5 15.8-.5 23.7 0 4.3.6 8.9-1 13-1.2-1-1.1-3.2-1.3-4.7q-.5-3.4-.6-6.7-.1-9.7-.7-19.3c-.2-3.3-.7-6.9-.2-10.2l.9-2.4-3.2-1.8q-2.7-1.6-5.2-3.4c-1.3-.9-2.7-1.7-3.2-3.1 2-.6 3.8.6 5.7 1.6q4.6 2.9 9 6.1l3-1.4q-3.6-2.6-7.4-5c-.8-.6-1.7-1.7-2.6-2-.6-.3-1.2 0-1.9-.2l-1.3-.7c-1.6-.7-3.2-1-4.7-1.9l-3 2.8c-.8-1.1-.2-1.8.2-3-1.8-1.2-4.7-.5-6.8-.7-2.9-.4-5.8.3-8.7.5q-2.2 0-4.3.2c-2.7.4-7.5 1.5-10 2.5-1.8-.9-7.8-.6-9.5.5 1.4 1 2.5 1.8 3.2 3.4 2-.3 3.8-1.1 5.7-1.5q4.6-1 9.3-1.4l7.6-1.3c4-.6 8.3-1.5 12.2-.2-1.8 1.7-6.3 1.9-8.8 2.3L181 59.8l-3.8.2c1.6 1.5.6 1.1 1 3q.4 1.1.6 2.3.3 3.3.4 6.7c.6 6.5.6 13 1 19.6v5.6q.6 2.8.4 5.7c-.2 1.3-1 2.4-1.1 3.7q3-.5 6.1-.8c1 0 2 .5 2.8.4 2.5-.3 5-1.3 7.5-1.8q7.1-1.6 14.3-2.6 2.1-.2 4.1-.6h1.6l1.6-.4 1.4 1.1c0 1.5-.4 2-1.7 2.5.9 1.5-.4 2.4-.9 3.8 1 .5 2.1.5 3.2.9q3.3 1.4 6.4 3.3c.6.3 2.5 1.8 3 1.8l1-.3 1 1.5 1.8-1.2c-2.4-2.4-7-4.5-10.2-6.5-1.4-.9-3.2-1.9-4-3.5h2.2c2 .4 4 2 5.7 3 .7.3 1.5 1.2 2.2 1.4h1.2a14 14 0 0 0 4.6 3.5c.6.3 1.2.1 1.7.6 1.3 1.2.5 3.1-.9 3.7s-2.2.7-3.7 1.7q.6 4.4.2 8.7c-.3 4 0 8.3 0 12.3 0 2.2-.5 4.6.1 6.7 1.7-1 2.7-.5 4.4.1q4.1 1.7 8.1 3.6a183 183 0 0 1 33.2 18l3.7 2.7q1.4 1.5 3.3 2.6 3.4 1.9 7 3.4 2.4 1.4 5 2.6c.7.3 1.6.2 2.3.6 1.7.8 1.6 2.8.6 4l-1.7.5c-.7.2-2.1 1.4-3.2 1.8l.5 2.7c.3 2.2 0 4.7 0 7 0 2 .1 4.2-1 6-.7-1.7-.7-3.4-1-5.3-.4-3.5-.8-6.9-.2-10.4-1.2-1-2.9-2-4.4-2.2-.2 1.3.1 2.5-.7 3.5-1-1.4-.5-3-.7-4.6-1.3-.8-2.7-1-4.1-1.7l-6-3.2c-1.3-.6-3-1-3.5-2.3 1.4-.5 2.8.5 4 1q5.6 2 11 4.4 1-.7 1.7-1.9c-.5-.4-1.6-1.3-2.4-1.3-.5 0-.6.2-1.2 0-1-.4-1.5-1.4-2.4-2q-3.8-2-7.7-3.8l-27.2-14.4q-6-3.2-11.8-6.8c-2-1.1-3.9-2.1-5.6-3.8-.6 2.2 0 4.9-.1 7.2l-.2 1.3q-.2 2 0 4l-.2 10.6c0 2.2.6 6.8-.5 8.6-1-1.5-.5-3.2-.6-4.8l-.6-10.7a282 282 0 0 0-.8-19v-3l-.5-10.3c-.2-4.2-1.6-10 0-14-4-1.8-8.5-3.6-11.8-6.7-.2 1.4.2 3 .2 4.4v36.9l-.5 3.3c2 1.3 6.2 2.9 7.7 4.5q.8.7.8 1.9c-1.5 2.6-4.7.6-6.8-.2-.5 1.8 0 7.7.4 9.8l.1 5.3q.5 2.8.2 5.7l-.5 3 7 3.5c1.4.9 2.8 2 4.4 1.8 1.4 1 2.6 2.2 2.6 4-1.4 1.2-2.4.5-4 .1-1-.2-2.3 0-3.3-.5l-1.2-.9q-2-1.4-4-2.4l.5 1.7.3 3q.1 3.4-.1 7v27.9c0 1.2.2 2.6-.8 3.4-.6-1.2-.4-2.6-.5-4-.4-2.8-.3-5.6-.5-8.4l-.9-15c-.4-5.7-1.3-10.7.8-16.2q-4.1-2.7-8.5-4.9a265 265 0 0 1-15-9.3l-5.4-3.5c-.4-.3-1.5-.8-1.6-1.4v-.9c1.3-.2 4.5-.1 5.3 1.2.6 1 .3 1.3 1.4 2.5 2.6 0 4.8 1.8 7.1 3 5 2.5 10 5.5 15.2 7.5l-.5-4.9c-.2-3.1.4-6.5 0-9.6 0-.7-.5-1.3-.6-2-.4-2.5-.3-5.2-.7-7.7q-2-.8-3.8-2.2l-1.5-1.2q-6-3.7-11.9-7l-4-2.3q-.7-.5-1.2-1.2-1.2-1-2.8-1.6a3 3 0 0 0-.8 1.9c0 .1 0 1-.2 1h-.2v-4.3c-1.4-1-1.6-2-3.4-1.1-.1 2.8.2 5.9-.2 8.7l-.4 1.4c-.3 1.3 0 3 0 4.4q0 2.8.2 5.5v9l.1 16.3q0 1.1-.3 2.3l-.5.7v3q.3-.2.6 0c.3.1.6 2.5.7 3q.2 2.8 0 5.6l.3 4.7.3 18.6c0 1.8-.6 5-.5 6.3l.5 1.4q.3 2.6.3 5.3c.1 2.7.6 5.5.4 8.3l-.6 2.7q2.5.3 5 .3 5.4.3 10.7 1.6c2.5.6 4.7.6 5.3 3.3 4.8.5 9.5 1 14.3.6.4-1.5 1.4-2 2.9-2.5-2-1.4-5.3-1.6-6.8-3.9-1.4-2 .4-4 2.4-4.8 4.5-1.8 7.2-.5 11.6 0-.5-1.4-1.6-2.3-1.5-4 1.2-1.3 2.7-1.3 4.4-1.1.4 0 1.8.4 2 0v-1.4c1.4.3 6 3.7 7 4.9-.9 1.6-2 .8-3.5.3-2.6-.9-5.5-2.4-8.3-2 .2 2.4 3.3 3 4.3 5-1.1 1.5-3.2.4-4.8.2-3-.4-9.5-1.2-11.6 1.5 2.2 3.2 8.9 3 10.8 5.3-2 1.2-5 0-6.5 2.3l11.7 1.7.9 1.2c2 .5 4.3.2 6.3.3q3.2.1 6.3 1 2 .4 3.9 1.1c.7.4 1.4 1.2 2.2 1.4l1.9.3 1.1 2-.8 1.4c-.3.7.2 1.5.3 2.2q.5 2.5.5 5 0 5.3.3 10.3 0 3.8.3 7.3c.1 1.6-.4 3 0 4.7 1.8-1.5 4.4-1.2 6.6-1.2q9 .5 17.5 3.2l5 1.7q.9.2 1.5.8.3.5.2 1.2c-1.6 1.1-5.6-.5-7.5-.9q-7.4-1.5-14.7-2.5c-2.8-.4-6 0-8.6-1.3l-2 3.6c-1.2-2-1.1-4-1.5-6.2-1-5.9-.2-11.6.3-17.3.3-3.5-.3-7-.1-10.5-.8-.5-1.6-1.6-2.4-2-1.6-.5-3.3 0-4.8-.5l-1.3-.7q-1.5-.5-3.2-.7l-7.3-1h-3.3l-2.4-1c-4-.9-8-1-12-1.7-2.5-.5-5.3-1.2-8-.6l4.7 1.4q-3 .1-6.3-.4-2.2.1-4.3-.1c-1.8-.3-3.5-1.3-2.3-3.2-5.3-1.2-11-1.5-16.3-1.8-2 0-4.6-.7-6.5.2s-3.9 4.6-4.3 6.6c-.5 2.4 0 5 .2 7.3l.2 4.3v6q-.3 1.9-.3 3.6c.2 1.6.8 2.7 1.4 4.2l4.6.4 11.2 1.1q15 2.2 29.8 4.8l11.9 2c1.8.4 4.2.6 5.5 1.9-1.3 1.1-3 .5-4.6.3q-6.4-.6-13-1.7c-11.3-1.9-22.8-2.9-34.3-4l-8.8-.8c-2-.1-3.4-.5-5.3 0-2-1.3-7.1-1.2-9.7-1.6-1.4-.2-3 .3-3.9-.9 1.1-.9 2.5-.8 4-.9q1.5-.1 2.9-.4 2.5 0 4.8-.3c0-1.7-.6-3.2-.8-4.8l-.4-4.5c-.3-3.7.3-7.7.7-11.3a45 45 0 0 1 2.7-10.9q.6-.6 1-1.3.2-.7 0-1.5l10.3-1.7c0-1.7-.6-3.5-.8-5.3-.3-2.7.5-5.5.2-8.3l-.3-1.6c-.2-2 .2-3.8 0-5.7l-.4-7.2c-.7-6.4-.7-12.8-1.4-19.1v-3.6c-.7-7-.5-14-1.2-21q-1.5-12.7-1.7-25.6c0-4-.4-8 .9-12q-2.5-1.6-5.2-2.5l-6-3.2c-1.3-.8-3-1.4-3.8-2.6 1.6-.3 3.5.7 5 1.3l6.5 2.8 3.9 2c1.5-1 1.7-1.3 2.7.4l2.4-1.8-2-1.3c1.3-.8 4.6-1.1 5.2.7.3.8 0 1.5 0 2.3l-2.4 1.3c.6 1.7 3.4 2.3 5 2.9l2 1 13.9 7.4c2.4 1.2 4.7 3 7.2 4q-.1-2.4-.5-4.7c-.3-2.4 0-4.9-.2-7.3q-.7-9-1-18c0-3.5-.8-7.3-.4-11l.7-3.2-1-1 .9-3c-2.4-.1-4.9.6-7.2.8-3.8.4-7.7 0-11.3.9-3 .7-6.1 2.1-9.2 1.6 1.3-1.2 3.3-1 5-1.7-2.6-.9-4.9.7-7.5 1.2-3.1.5-6.2-.3-9.3.7.5 1 1.7 1.4 2.3 2.3.4.6.5 1.2 1.1 1.6q.7.3 1.4.2c1 3.4 2 9.8 1.4 13.3q-.4 1.4-1 2.7l5 3.3c-.4.3.2.2-.3.4-.7.3-3.6-.5-4.3-.8q-5.6-2.3-10.9-5.1-9.9-4.8-19.5-10.1l-8.7-5.2q-3.3-2-6.6-3.7c-1.2-.6-2.7-1.1-3.6-2.2-1.6-2-.8-5.3-.8-7.6-2.3-1.1-3.3 1.9-4.7 3-.3-.4-1-.9-1-1.4-.4-1.7 3-4 4.4-4.6v-9c-2.2-.2-5 1.8-6.6-.3q.1-.8.7-1.3c.6-.4 4.5-.6 5.8-1q.2-1.3.1-2.6c-.3-2-1.5-5.3.6-6.6 2.2.3 1.3 1.4 1.2 3l.2 1.2c0 1.8-.2 2.9.3 4.7 2-.2 5.5-2.3 6.8 0-.6 2.7-4.4 1.1-6.3 2.6q-.7 1.9-.2 3.7.1 2.7-.2 5.3l1.8 1.3.8 1.2c1 1 2.2 1 2.9 2.5l-.7 1.8-.2 1.5-.4.4c-.5-.8-.3-1.7-.7-2.5-.3-.7-1.4-1.3-2-1.7a7 7 0 0 0-.3 4.3q.6 1 1.7 1.3c1.3.6 3.6 2.2 4.8 2.5.3.2.7 0 1.1.2l2 1.1 4.9 2.4q9.4 4.6 18.4 9.8c4.5 2.5 8.7 5.4 13.3 7.7 0-1.7-.8-3.4-.9-5.2s-.2-4.1 0-6l.4-2.3c-.8-.2-1.7-.2-2.4-.9-1-.8-2.2-2.5-2.7-3.6q-.1-.7-.4-1.3c-.2-.2-1-.4-1.3-.5q.3-1 1-1.4l1.3.1 1.7-.4c1-.2 2 0 3-.3 0-1.2-.8-2-1-3.2l-.2-2.1c-.3-4.7 0-9.4 0-14v-13c0-2-.4-4.2-.3-6.3 0-2.7.6-5.4.5-8q-.7 1-2 .8c-3.1.1-3-1.2-3.7-3.7l-.6-2q-1 .1-1.4-.6c0-1.5 1.4-1.5 2.7-1.6 3-.3 5.8-.5 8.6-1.5-.1-3.4 1-5 2-8 1.8-4.8 4.1-8.9 8.1-12q3-2.1 6.2-3.8c.2-3.5 1.2-4.4 4-6.1V11c-2.1.3-5 2-6.5 0 .3-2 1-1.6 2.7-1.7q2 0 3.8-.7c.5-1.6 0-2.7-.2-4.2q0-1.3.2-2.4-.1-.8.2-1.6c1.2-1 2-.3 2.4 1Zm1 26.3c0-2.2-1.5-4.7-4-3-1 .8-1.2 2-1.5 3zm7.5 18.6c-.1-5.6-1.8-15-8.5-16q-3.2-.5-6.2.6c-1.7.4-3.1 1.7-4.5 2.8a26 26 0 0 0-7.3 12c-.4 1.1-.2 2.3-.4 3.5l-.6 1.7c2.5.2 5.2-.6 7.8-.9 1.3-.1 1 .2 2 .3.8 0 5.9-1.5 7-1.8l7-1.6zm-.8-13c0 1.4 1 2.4 1.4 3.7q1.3 3 1.8 6.3 0 1.4.2 2.6 1.4 0 2.7.7v1.7l4.6 3c-.1-1.6-1.6-3.2-2.2-4.7-2-4.7-4.2-10.1-8.5-13.2Zm2.4 22.4c1 2.6.8 7.9 1 10.9q1 10.5 1.7 21.2.4 3.8 0 7.4c0 .5 0 1.8-.3 2.2l-.6.4v-2.5l-1.5 3c-2.1-2.8-1.5-7-1.5-10.5q0-11.1-.6-22.2 0-3.8.8-7.5c.3-1.1.1-1.6 1-2.4Zm-9 44.2c-1-2.2-.7-4.4-.9-6.7l-.7-9.4c0-3.7.2-7.3-1-10.9-2-6.4-8.2-5.2-11.5-.7a15 15 0 0 0-2.6 6.7c-.2 1.5.5 3-.6 4.1-.7-1.5-.4-3.2-.1-4.8v-2.6c1-5.4 6-11.3 12-9.4 6.5 2 6.5 12.6 6.5 18v4.6c-.1 2.9.3 6-.2 8.7-.2 1-.2 1.8-1 2.4Zm-9.3-26.7c1.5.5 1.3 1.3 1 2.7q1.3.3 2.4 1c2 1.6 2.4 6.2.9 8.1-1.5-1.4-.6-4.3-2-6-1.2-1.8-3.5-1-4.4.6-1.1 2-.4 4.7-.9 6.8-.2 1.2-1 2-1.4 3.1l3.4-1c2-.4 6.2.7 7.2 2.3-1 1.3-2 1.5-3.6 1.9-.4 1.9-1.9 4.2-4.1 2.8-.8-.5-1.1-1.6-1.5-2.4-1.4.1-2.7.2-4-.5-1.2-2.6 1.5-4 2-6.2.9-4-1.3-7.5 3.3-10 .3-1.4.4-2.4 1.7-3.2Zm2 17.3q-2-.3-3.8.3l1.4 2.6c.9-.7.7-1.3 1.3-2.1zm-4.8.7c-.9-.2-1.2-.2-1.8.3q1 .1 1.8-.3Zm-67 11.6c.7 1.3-.5 2.4-1.5 3.4l-7.7 7q-5.3 4.8-10.4 9.8c-4.2 4.3-7.8 9-12 13.3-2.7 2.7-5.8 4.8-8.6 7.4 5.2.6 8-5 11-8.3q2-1.8 4.2-3.5 1.3-1.1 2.5-2.5l5.5-4.8 8.3-7q2.4-1.8 4.6-3.7c1.1-.9 2.2-2.1 3.7-2.1.1 1 .3-.3.2.6s-1.5 1.9-2 2.4l-5.6 5.3c-6 5.7-12 11.6-18.5 16.8q-1 .9-2 1.3l-1 .1c-.6.3-1.3 1.3-1.8 1.8-1.3 1-2.8 1.5-3.7 3l1.3 1.3-.7 1.3v1.3q0 2.3-1 4.4c-1.3-1.4-.7-3.8-1.1-5.5l-3.9 2.5v1.6c-.8 1.8.2 4 .3 6l-.1 3.6q.2 2 .6 3.7c.4 4.1.3 8.3.8 12.3v4q.3 7.2.1 14.3v47.6c0 1.7.4 5.3-.5 6.7-.8-1.2-.8-4.8-1-6.4l-.4-14c-.2-10.2-.2-20.5-1-30.6l-.1-9-.2-4.3-.3-1 .2-1.3q.1-2.2-.2-4.4c-1.2.7-2.2 2-3.3 3-3 2.6-6.2 5.8-9.8 7.7-1.3.7-2.6 1.8-4 1.7-.4-1.5 2.5-3.2 3.5-4.2L77 180c1.4-1 3-2.7 4.6-3.4l2.1-.9v-14.6q0 .6-.2.7c-.3 0-.3-1.5-.3-1.8q-.5-3.1-.5-6.2c0-1 .3-2.2 0-3-2.6.2-2.7-1-3.8-2.8-1.2 0-2 .1-2.6-.9-.2-1.7 1.3-2 2.5-2.5l3.4-1.3c.3-.1 2.3-2 2.4-2.2l.1-.9c.4-.8 2.4-2.8 3.1-3.6l7.6-7.7q9.1-8.7 18.8-16.8c3.7-3.1 7.2-6.5 11.3-9.2Zm-72.9 5.9c1 1 .4 1.5.2 2.8v2l1 9 .3 2.6c2-.1 2.3 1.6 2.6 3.3.4 3.5-1 7-1.2 10.3l1.3.4c1.6.7 1.2 4.9 1 6.3 1.7.2 2.2.5 2.4 2.3q.2 1.5-.3 3l-.4 4q-.2 1.6-.7 3.3c-.2 1.7-.3 4-1.5 5.2-1.6-1.2-.8-2.7-1-4.3l-.5-1c-.2-1.2.7-4.2 1-5.5-1.3.2-2.3 0-2.2-1.7 0-2.8 1.5-5.5.7-8.2-2 1.4-2.7-.1-2.5-2.1v-2.7c.5-3 1.6-6.4 1.1-9.5l-1.3-.2-2-8.9c-2.8 3.7-3 9.5-2.9 14 0 2 1.1 3.5.2 5.4h-1.6a45 45 0 0 0-.3 16.2c.2 1.3 1.2 5.6.9 6.6l-.6.7a17 17 0 0 1-2.9-8v-4q-.6-4.4-.1-8.8c.3-2.2.7-4.3 2.5-5.8 0-2.4-.4-4.9-.2-7.3q.4-7.2 3.4-13.8c.8-1.8 1.6-5 3.6-5.6Zm135.1 3c-1.8 1-6.3 2-8 .7 1.8-.7 6.6-2 8-.6Zm-27 16c-1.8.3-5.1-1.8-6.9-2.6q-8.7-3.7-16.6-9c-1.7-1-4-1.9-5-3.7l.9-.3c1 0 5.8 2.3 7 2.8q7 3.5 13.6 7.7c2.4 1.5 5.2 3 7 5.1Zm40.1 5c-1.5 1.3-4.3 1.4-5.5-.3q-.1-2-.5-4-.3-3.6.3-7c.3-2-.2-3.8 2.8-4 1 0 2.5.7 2.7 1.8l-.2 2.2c.6 3.6 1.2 7.7.4 11.3Zm-2.1-12.5h-2c-.1 2.1.4 4.1.6 6.2 0 1.6-.4 3.2-.4 4.7h2c.1-1.3-.4-2.7-.4-4-.1-2.3.4-4.6.2-7Zm-65.5 22.1c10.4-1.7 16.6 9.5 13.9 18.6-1.3 4.2-4.8 9-9.4 9.8l-2.3.2-2.7.5c-7.7.1-13.4-7.6-12.4-15 1-6.8 6-13 12.9-14Zm1 2.6q-2.6.4-4.5 1.5c-1 .7-1.2 1.7-1.9 2.5-2.7 3.4-4.3 4.2-4.8 8.8-.5 5.7 4.6 11 10 11.2 7.4.3 13-8 12-14.8-.7-5.2-5.2-10.1-10.9-9.2Zm-48.6 2H84l.4.8c.7-.2.8-.1 1.2-.8Zm-2 .3h-1.5l1 1.1zm-43 1.6c1 1 1.3 1.2 1 2.7-1.4-.2-1.7 3.3-1.8 4.3a32 32 0 0 0 0 6.6c.2 3.1.8 4.1 0 7.3l1-.2-.6 3.8c-1-1.3-1.2-3.2-1.6-4.8q-2.1-6.5-1.5-13.4c.3-2 .8-6 3.4-6.3Zm96.8 1.7-2.8.1c-4.6.9-4.7 4.4-7.5 7.2l.7 1.7c.8 2 1 3.9 2.9 5.4 1 .8 2.2 1 3 1.9-2.5 2.1-5.2.3-6.9-2a6 6 0 0 1 0-7q-.7-1.3-.7-2.7c.2-3 3.5-5.7 6.3-6.4 1.7-.4 4.7-.4 5 1.8Zm-47.3 3.8c1.4 1.6 1.5 6.5 1.3 8.7q-.6 9 .1 18c.1 2.2.8 7.5-.1 9.4-1.3-1.9-.8-7.9-.7-10.3l-.2-7.7v-3.3c-.7-5-1.4-9.8-.4-14.8Zm151.1 4.1q-.3.4-.8.4c-1.5 0-5.6-2.5-6.5-3.7 1.8-.3 6.2 1.9 7.3 3.3Zm-181 4.5q1.6 2.3 1.9 5.2c.8 4.9-.4 9.4-1.1 14.3l1.7.2c1.4.7 1.7 4.4 1.8 5.8l.3 2-.2 1.6c-.2 4-.2 7.6-.9 11.6h2.7c-.4-2-.7-5.3.7-6.8q1.2 2.7 1 5.5l-.8 2q0 1 .3 2 .3 2.2.3 4.3c0 2.5-1.2 5-1.1 7.4 1.7 0 2.1 1.4 2.3 3 .3 2.9-1 5.7-1 8.6.8-1 1.4-1.2 2.7-1.2 2.6 3.2-1.4 8.5-2.2 11.8 2.2.8 1.3 3 .6 4.6a24 24 0 0 1-2.3 4l-1.1 1.2-.3 1.5c-.2 1.1-1.3 2.1-2 2.8-1.2 1-2.2 2.3-3.7 1.9-.3-1.7.4-1.5 1-2.9q0-.7.3-1.3c.4-1 1.4-1.9 2-2.6q1.8-2.2 3-4.5h-1.6c0-1.4.8-2.6 1.3-3.8 1.2-2.7 2.8-5.6 3-8.5-1.3 1.4-2.3 3.3-4 4.4-1.4-2-.6-3 0-5.1 1-3.1 2.7-7 1.3-10.2-.7.3-.9.4-1.6.3-1-1-.3-1.8-.3-3l.8-8.4c.1-1.5.4-3.1-.5-4.5l-2 .6c-1.5-1.7-.7-2.2-1-4V200c.6-4 1.8-11.2-.2-14.9h-1.8c-1-1.2-.4-1.3-.5-2.6l-.4-1q0-1.2.3-2.4c.5-3.1 1.2-6.4 1-9.6 0-2-1-4.9.3-6.5Zm207.8 9.5c-1.6.1-3.2-.9-4.7-1.5a68 68 0 0 1-9.8-4.8c-1-.7-2.4-1.3-3.2-2.3 1.3-.9 3.2.4 4.5 1q4.8 2.2 9.4 5c1.3.6 3 1.3 3.8 2.6ZM41.3 172c1.4 2.2 2 5 2.8 7.4.2.8 1 2 .9 3q-.3.8-1 1.2l-3.4-2.8c-.9 1.7-.6 3.8-.2 5.6L43 196q.5 1 .3 2l-.4 1c0 .1.4 2.4-.7 2.2l-.2-.2h-1.4c-1 1-1 2.1-1.2 3.5-.6 4.3 1 9.1 2.2 13.2.7 2.1 2.3 5 0 6.6l-2-.8c-.3.6-1.3 3.7-1.3 4.3 0 1.6 2 6.7 2.8 8.4.7 2 2.9 4.7 1.2 6.5l-2.4-.9c-.1 2.8 1.9 5.1 3 7.5l.9 1.9L45 253c.4 1-.1 2.2.6 3.1 1 1.4 2.8 1.9 4 3 0 1.6.6 3.1 1 4.7q.6 3 .5 6c0 1.3.2 2.7-.5 3.8-1.3-1.5-1-3.9-1.3-5.7-.3-2.4-1-4.5-1-7q-1.1-.1-2.2-.6c-2-1.1-4.7-4.3-4.5-6.7q.1-.8.4-1.4c-1.7-2.6-4.2-5.5-4.7-8.7-.3-2 .2-4 2.4-4.3q-.6-2-1.7-4a24 24 0 0 1-2.5-8.3c-.1-2 .2-5 2.6-5.6q1-.2 2 0c-1.6-5.6-4-11.4-3.3-17.3.4-2.9 1-5 4-5.7-.2-2-1-3.8-1.5-5.7q-1.2-3.9-1.8-7.9c-.4-2.2-.3-5 1.8-6.4.9 0 1.3.2 2 .7 0-1.5-.8-2.9-.7-4.3 0-.8.4-2 .7-2.7Zm93.8 7.5v1.6l3.4 2.4 1.5.2c.8.1 1.7.8 2.4 1.2q5.8 3 11.2 6.8c1.2.8 4 2.9 4.8 4l-1.9 1.3-3.2-1.7q-5.2-2.8-10.1-6c-3.2-1.9-5.9-4.7-9.5-6l-1.3 1.2-1.6-.6c-2 1-3.8 3-5.7 4.3-.6.5-1.6 1.5-2.3.8l-13.6 12.7 4.6-.6q1.4.8 1.8 2.2c-.7.8-1.2.5-2 1-.6.3-1 1.2-1.5 1.7.8.6 1.7.7 2.2 1.7-1.3.7-2.2.5-3.6.6q0 1.6.3 3l.4 9.3v9q0 11.5-.3 23c2 .8 1.7 1.1.5 2.6 1.5.2 3 0 3.8 1.3l-1.2 1.4c.5 2.8 1.6 6.7 0 9.2-2.6-1.5-.9-7-1.4-9.5l-2.3.6v5.7q-.4 0-.7-.2c-.2-.2-.1-1.2-.2-1.5v-4q-1.2.2-2.5.2l-1.3-.4q-1.3-.2-2.7-.2l-.6-.1q-.4-.2-.6-.5c.9-1.2 3-1.2 4.4-1.7l-2.6-1.3c1.5-1.7 4.6-1.2 6.6-1.7l-.7-8.3c-.3-4-.2-8-.6-12l-.4-2.6c-.2-5.8 0-11.6-.6-17.3l-.2-3.7c-1 0-4.3.3-4.9 0q-.5-.2-.9-.6l.5-1.3c.1-1.3-1.3-1.8-1.8-2.7.9-1.5 3.4-1.2 5.1-1.6.6-1 1.3-1.5.4-2.4l5.2-5.5q5.3-5.1 11.1-9.5l4.5-3.2c.4-.3 1.2-1.1 1.8-1.1l1.3.4v-1.3c.7-2 3.8-1.5 5-.3Zm119.4-.2c2 1.1 2 3.1 2.3 5.2q.6 4.9.2 9.9-.2 2 .1 4l-1 .7c-1 .1-4-.6-4.8-1-.6-1.2 0-2.1-.1-3.4q-.4-4-.2-8c0-1.4 0-3.1.8-4.3.9 1.3.4 3 .7 4.5.5 3.3.8 5.5.2 8.8l2.1.6q-.6-4.2-.3-8.6c.2-1.7.8-3.4-.1-5-.7-1.1-1.6-1-2.5-1.6.6-1.3 1.2-1.7 2.6-1.8Zm38.8 1c-1.1-.5-3-.6-4 .4l3 2zm2.3 1-1.4-.6v1.7q1-.1 1.4-1ZM81.8 184q-1.7 2.4-4 4-3.1 3-6.5 5.3l-1.9.7-1.8 1.4c-.2-1.5 1.5-2.9 2.6-3.9 1.7-1.5 3.3-3.3 5.2-4.4l2.4-1.4c1.2-.7 2.6-1.7 4-1.7Zm64.1 11q-1.7.1-3.3-1c-2.1-1.3-4.5-2.3-6.5-3.8-1-.8-2-1.2-2.2-2.5 1.3-.8 2.6.3 3.7 1 2.1 1.2 7.3 4.3 8.3 6.3Zm-15.9-5.6c-.8 1-3.5 3.8-4.5 4.5l-3.7 2.4c-1.3 1-2.8 2.2-4.4 2.5 0-1.2 1.2-2 2-2.7q3.2-3 7-5.7c1-.7 2.5-1.8 3.6-1Zm158-.2c.9 1.3.8 3.2 1 4.8.3 2.8.4 5 0 7.8 0 1.1.3 1.8-.3 2.8-.8-.9-.5-1.3-.7-2.5q-.6-4.5-.6-9c0-1.4-.2-3 .6-4Zm-122 9v1.8c-1 .6-2.2.6-3 1.5s-.2 1.2-.3 2l-.3.6c-.2.7.2 1.6.3 2.3.5 2.7.4 5.5.7 8.3s0 6 0 9v22.9c0 1.4.2 2.8-.7 4q-.4-1.7-.4-3.4-.3-1.6-.4-3.3l-.2-8.3q-.5-7-.7-14.3c-.1-5.6-.4-11-.1-16.6l-4.2.5q.1 3 .7 6.1.4 3.8.4 7.7c.3 4.2 0 8.4.2 12.6q.2 6.7.2 13.6v6.3l-.4 2c1.8.2 5-.6 6 1l-4.1 1.4c1.9.5 5.2-.5 6.4 1.3-.7 1.3-1.7 1.1-3 1.3-2.6.3-4.1.6-6.7 0-.3 1.5.2 2.9.3 4.4q0 2.4-.5 5c2.4.4 8-.4 9.7 1.3-1.5 1-3.5.6-5.2.6q-5 .3-10 .2-19 .4-38 1.1l-6.6.6-4.6-.2c-2.1 0-3 .8-4.6-1 1.1-2.2 4.4-1.8 6.5-2.3l-.4-2.4c-.3-2.2 0-4.9.8-7 1.7 2.4 1.1 6.5 1 9.2h16c-.1-1.4-.7-2.8-.8-4.1v-8.4l-.2-13-.2-9c0-1 .3-2.5 0-3.5-.3-.8-1.3-1.4-1.7-2l1.6-1.7q-.3-2.7.3-5.4c1.8-8.8 9-17 18.9-14.3 7.8 2.1 11.4 10.6 12 18 1 .7 1.6.6 2.6 1.7l-1.3 2.4q-.5.4-.8 1c-.3 1.1.1 2.8.2 4v7.9l.1 16c.2 2.4.7 4.8.4 7.3 0 1-.5 2-.5 3h2.8l-.6-4 .1-3.3c.1-.6.6-1.2.3-1.9l-1-1.2c1-.8.7-1 .3-2l3-2c-1.2-4.8-.4-10-.7-15q-.4-7.7-.6-15.5c-.1-5.8.3-11.6.2-17.3l-1.4-.7-.7-1.2c-.4-.7-1.3-1-1.8-1.6q-.4-.9-.6-1.9c1-1.2 1.9-1 3.3-1.4l8.3-1.4c1.6-.2 2.6-.5 3.7.8Zm113.2 1.5c-1.2.9-4.3 4-5.5 4q-.5-.4-.5-1c0-.7 1-1.3 1.4-1.7.8-.8 2.7-3 4-2.3zm-9.1.4c1.6 2-1.1 8.4-3.3 9.3-1.5-2.2 1.5-5 2-7.1-1.5.3-2.6 1.6-3.6 2.7l-2.6 2.7c-1 1.3-2.7 4.8-3.2 6.4l-1.4 4c0 .4-.1 1.4-.5 1.8l-.4.2c-.7-3.4.2-6.9 1.7-10q.8-1.6 1.8-3.1c.1-.2.6-1 .8-1 .5.1.6 1.5.7 1.8q0-1 .2-1.7c.8-2.4 5.2-7.1 7.8-6Zm-109 .8-1.6.7c-1.3.4-2.6 0-3.8.7 1 1.3 2.2.3 3.6.3.5 0 1.2.4 1.6.1s.2-1.4.1-1.8Zm124 0c1 3.6-1.8 7-3.2 10l2.5-.6 1 1c-.5 2.2-1.9 3.7-3 5.6-.6 1.3-.9 2.5-2 3.6-1.5-1.6 1.2-4.9 2-6.5-3 .7-4.2 5.5-7 6.3-1.1-1.6.5-3.7 1.4-5q2.8-4.5 5.2-9c1-1.6 1.7-3.9 3-5.3Zm16.6 1.3c.2 1.5-.6 2.4-.7 3.7 3.5-2.4 8-4.8 12.3-4.4 3.6.3 6.4 3 5.7 6.8-.7 4.5-4.8 8.3-8.2 11q-1.6 1-3 2.3c1.7.1 3.9-.3 5.2 1q.5 2-.6 3.5c-.4.5-1.8 1.6-1.8 2.2 0 .4.6.6.7 1-.9.7-1.2.3-2.1.6-1.7.6-3 2.3-4.8 2-.1-1 .8-1.6 1.5-2.2 1.5-1.5 5.2-3.7 5.4-5.8-2.4-1.3-5.4.8-7.6-1 .4-2.3 2.4-3.6 4.1-5 2.3-1.8 4.8-4 6.5-6.4 1-1.4 3-4 1.7-5.7-1.2-1.6-3.8-1.5-5.5-1.1q-5 1.2-9.5 4.1-.6.6-1.3.9-.4-.2-.8 0c-1.5.5-1.4 1.8-3 .3.3-2.4 3.1-3.9 3.4-6.2-5.5 2-9.2 7-13.3 11-.2-1.9 1-3.5 2.1-4.9q3.4-4 7.8-7c1.7-1 4.1-2.6 5.8-.7ZM108 204.7a6 6 0 0 0-3.9.3l1.4 1.2c1.4-.2 2.4.1 2.5-1.5Zm1.5-.1.3 1.2.8-1.1zm38.4 20.7a24 24 0 0 0-2.8-10.6c-.8-1.4-2-3-3.4-3.9q-1.7-1-3.6-1.7c-9.6-3.4-15.8 8.8-16.4 16.5h1c.5.1.4.4 1.4.6.5-.6 0 .3.4-.3.2-.2.6-3.9.8-4.6 1.2-4 3.4-8.2 8-9 1.6-.3 3.6-.5 4.7 1-1 .6-2 .3-3.3.5q-1 .3-1.9.8c-4 2-5.6 7.2-6 11.4 1.5.7 3.3-.1 4.5 1.3-1.4 1.3-3.6.2-4.8 1.6l1.4 1.4-1.5 1q0 1.7.2 3.3l.4 9.6v7c.4 4.5.9 9.3.5 14 0 1-.4 1.8-.4 2.7h22.8l-2-38.6-2.4-2.4c.6-1 1.3-1.2 2.4-1.6Zm-42.4-13.7c1.3 1.9.9 6 1.1 8.4q.5 6 .7 12c.2 3-.2 6.1.1 9.2.2 2.7 1.1 8.3-.6 10.5l-1-.2c-.5-.4-.7-1.7-.8-2.3-.3-2.2 0-4.4 0-6.6q-.1-10.8.1-21.6c.1-2.5-.7-7.4.4-9.4Zm145.6 9.3c.7-1.9.5-3.6 2-5.2 2.6.4 2.5 3.7 3 5.8.3 1.2.7 2.3.1 3.4-1.7 0-1.6-2.6-2.6-4v5.4c-1-.1-.6.3-1.1 1-1.3-.5-1.8-2.3-2.4-3.5-1.3-2.7-2.8-6.3-5.6-7.6-1.7 1.8-1 5.2-.5 7.4.2 1.2.8 2.2.2 3.3q-1-1-1.4-2.4c-1.2-2.6-2.6-8.2 0-10.3 1.4-1 2.7-.4 3.9.4 2 1.5 3.3 4.1 4.4 6.3ZM55 214.5q.4 1.8.6 3.8c.4 3.3 1 6.5.1 9.8-1.8-2-1.3-7.2-1.2-9.8.1-1.3-.3-2.9.5-3.8Zm229.5 9a16 16 0 0 1-4 5.8c-.4-.7-.1.3-.4-.4-.7-1.8 3-5 4.4-5.5Zm11 .3c.2 1.5-.7 2.3-1.6 3.4-1.6 1.9-3.9 4-4.7 6.4 1.8 0 5.5-2 6.5-1.7q.3 0 .5.4c-.5 1-3.3 3.3-4.4 3.4-1.3 0-2.5-.5-3.8 0-1 .2-3 2.6-3.6 3.5 2.4 0 4.6-1.2 6.8-1.7l2.3-.4c1.1-.5 3-1.5 4-.5-.7 1.4-4.1 3.3-5.7 3.2q-.8-.2-1.7-.7-.4 1.1-1.2 2c-2.6 2.3-6.2.2-8.7 2.3-1.4 1-5.5 5-6.4 6.3l-2.9 6.1c-1.2 2.5-2.4 4-3 6.8-.3 1 0 2.2 0 3.2q.1 1.6-.3 3c-.3 1.7-1.2 3.3-1.4 5q1.8-1.7 3.3-3.5 4-3.4 7.3-7.6c.6-.8 2-3.7 3-3.8q.6 0 1 .4c-.2 1.7-2 2.9-2 4.6q2.2-1.1 4.2-2.4 3.5-1.3 6.5-3.4c3-2.5 5-5.6 8.4-7.6 1.2-.8 5-3.2 6.5-2.8q.5.3.7.8c-.3 1.9-2.7 2.3-4.2 3-2.8 1.5-4.9 3.8-7 6 3.2.8 9.4-2.6 11.9 0-.8 1.5-2.5 1.5-4 2q-3 1-6 1.2c-1.5 0-3.2-.5-4.7-.4-1.7.2-3.5 2.1-5 3q-3 1.8-6.1 2.9c-1.3.4-3 .7-4.2 1.4-.8.4-2 2.6-2.7 3.3l-6.3 8.7c-.8 1.2-2 4-3.7 3.9-.9 1-1.1 1.5-2.6 1.6l-.7-1c-.3-1.4 1.2-4.3 1.7-5.6a96 96 0 0 0 3-9.6c.5-1.9 1.1-3.8.7-5.9-.7-3.3-2.6-6-3.7-9.2-.4-1.2-.9-4.4-1.4-5.2-.9-1.1-2.6-1.9-3.7-2.8-1.9-1.6-4.3-5.8-3.8-8.3 1.4.4 1.8 1.7 2.7 2.8 1.3 1.7 3 3.8 5 4.6 0-1.4.5-3.2.4-4.7-.2-2.7-2.7-7.9-.2-10 1.2 1.5 1.3 5.6 2 7.7l1.7-2.1.4-1.7a9 9 0 0 1 2.3-3.7c.6 1.9-1.2 6.7-2.3 8.4-.4.7-1.4 1.4-1.6 2.1-.3 1 0 2 0 3 0 1.6-.5 3.3-.3 5s2 4.7 2.8 6.5c.5 1 .7 2.2 1.4 3.2q1-2.9 2.2-5.6c1.2-2.4 2.9-4.4 3.7-7q.4-1.1.6-2.4a36 36 0 0 1 4.4-9.3v2.4c-.4 2.1-1.7 4.3-1.6 6.5q3.6-3 7-6.4 1-.8 1.7-1.7l.7-1.8a32 32 0 0 1 4-5.8c1.1-1.3 4-4.3 5.9-3.7Zm-56.2 4 .6-1.3c1.8.3 3.6 3 3.7 4.8h-2c-2.3-1.2-4.7-2.9-7.2-3.7-1.4-.4-2.8-.7-4 .3 1 2.8 3.2 4.4 4.7 6.7-.7.2-1 .2-1.5.9-2.2-1.5-7-6.7-4.6-9.3 2.3-2.7 8 0 10.3 1.6Zm85 6.8q1.7.7 2.8 2c0 1.8-.8 3.4-2.7 3.6l1.4-2.3c-1-2.2-3.5-.7-5-2.3l.2-1c.3-.6 1.3-1 1.9-1.4q1.9-1.1 3.2-3c-1.9-2.1-8.1-.5-10.6.3-1.3.5-3 1.7-4.2.8 2.6-3.4 10.4-5.1 14.3-4q1.6.3 2.3 1.6c1.1 2.7-1.6 4.6-3.5 5.7ZM124.8 229c-.9-.7-.9-.7-1.9 0zm-.3 2.2h-2.6q-.1 1.4.2 2.6l.1 8.3c.2 4.6 0 9.1.2 13.7q.4 4.3.3 8.6c0 1.2-.5 2.3-.5 3.4h3.8l-.6-2.7q-.4-3.5-.5-7c-.3-5.8.2-11.6-.2-17.3-.2-3.1.5-6.6-.2-9.6ZM56.4 238c1.4 1.7 1 6 1.3 8.1.5 3.3-.1 6.7.2 10l.9 5-.1 2q.2 3.6.7 7.3.2 1.6 0 3.3c.2 1.9.7 4.8-1.4 5.7-2-1.8-2-6.5-2-9q0-3 .3-6 .7-3.4.7-7-.2-3-1-6l-.1-3.6c-.2-2.6-1-7.6.5-9.8ZM319 256c0-2 2.5-1.9 4-2.3 2.7-.7 6-2.1 7.3-4.8-1.7-4.6-9.6-1.7-12.6-3q1.4-1.4 3.4-1.7c3.3-.7 11.2-1.1 11.9 3.7.6 4.6-5 7.7-8.7 8.5-1.7.4-4 1-5.3-.4Zm-33-6q.3 2-1.6 3c0-1.3.6-2 1.6-3Zm-3 4.2c.7 1.1.3 2.1-1 2q0-1.3 1-2Zm-207 3.3q0 1-.8 1.4c-.6.2-1.6-.3-2.2-.4q-1.9.1-3.5 1-2.7 1.6-4.7 4c-.7 1-1 2-2.1 2.4-1-1.4.2-3.2 1-4.5q.9-1.5 2.2-2.8c2.4-2 7.8-4.3 10-1Zm11-1.5c.7 1.3.4 3.3.4 4.9l.6 5v3c0 1.6.4 3-.7 4.4-1.3-1-1.3-2.3-1.3-3.8l.5-7.6c-.1-2-.5-4.2.5-6Zm-62.2 13.7c-2.4-2.1-4-6.7-6-9.5 0 2.3 1.5 4.7 2.3 6.8.4 1.1 1 2.2.3 3.2-2.5-1-4-7.3-4.6-9.8-.3-1.2-.7-2.5 0-3.7 1.5-.5 2.4.5 3.3 1.6q2.9 3.4 4.7 7.4c.7 1.4 1.7 3 0 4Zm4.6-11.6c1.6 1.2 1.6 3.2 1.8 5q.1 1.1.4 2c.1 2.6-.6 5.4.2 7.8 1.3-2.5 3.9-5.9 7-6.1 3 2-.2 6.5-2 8.2-.4-1.9 1-3.5 1-5.4-2 1.4-3.4 3.5-4.7 5.4q-.7 1.6-2 2.3c-.9-1-.6-2-.2-3.1l-1-.8c-.5-.6-.3-2-.5-2.8-.3-2.2-.1-8-1-9.4-.5 1.4-1 4.5-2 5.4-1-1.8-.3-7.2 1.6-8.3q.7-.3 1.4-.2Zm78.2.6c.7 1.2 1 3.5 0 4.6-1.2-1-1.1-3.7 0-4.6Zm119.9 1.2c-1.9.4-5.4.3-7-.7 1.8-1.1 5.4-.7 7 .7Zm81 9.6q1.1 1 1 2.6c-.5 2.4-5.7 3.2-7 1 1-1.7 3-1 4.4-2-1-.7-1.5-1-1.8-2.3 1.4-2.2 6-1.8 8-3.6-1.2-3.5-7-2.2-8.7-4.3 2.5-.2 5.2-.8 7.6.2 2.5 1 5 4.2 2.3 6.4-1.6 1.3-3.9 1.5-5.7 2ZM20.8 272c-1.6-.2-2.8-1.7-4.3-1.8.5.4 3.2 2.8 3 3.3l-.6 1c.9.4 1.3.3 2.2 0 1.3 1.3 3.2 2.9 3.6 4.7-.6 1.1-1.1 1.3-2.3 1.9-.6-3-5.8-2.5-6.4-5.6 1.3-.4 2.4.2 3.8.4-1.1-1.7-3.4-2.7-5-4-1.4-1-2.5-2.6-3.6-4-1.1-1.2-2.4-1.9-2-3.7 1.3-1 2.3-.5 3.5.2a34 34 0 0 1 6.3 4.7c.9.8 1.8 1.7 1.8 2.9Zm227.1-8.1c.8 1 .8 2.3 1 3.6q.3 5 .1 10c0 1.5 0 3.6-1 4.7-1-1.2-1-3.2-1-4.7.1-2.2-.2-4.5 0-6.7l.5-2.3c0-1.6-.5-3.2.4-4.6Zm-47.5 3.6c-1.7 1-6.2.6-7.7-.7 1.4-1.3 7-1.4 7.7.7Zm-119.8-.7q.2 1.8-1.6 2.2l-1.2-1.2q.9-2 2.8-1Zm133 6c-.8 1.9-2.5.9-4 .7-2.7-.3-7 .2-9.4-1 .5-1.4 2-1.3 3.5-1.4 2.4-.2 8.5-.5 10 1.7Zm81.5-1.3c-.2 1.2-1 1-2.1 1.3-2.5.7-3.4 1-6.1.7 1.4-1.8 6.2-3.2 8.2-2Zm-251.7 1.8q1 1.8-.7 3l-1.6-.8c-1.3.6-2.6 2-4 2q-.4-.4-.5-1c0-.5 1-1.2 1.4-1.5 1.6-1.2 3.4-2.1 5.4-1.7ZM82 273c2-.1 1.3.8 2.7 1.6q1.5.8 3 .9 1.9 0 3.6-.3h7.6l3-.3h35q7.3-.2 14.6.3c2.4.3 6-.1 8.2 1-1.3 1-4.4.8-6.2.8l-15 .3-41.6 1q-4.6.3-9.3.4c-2.6 0-5.7-.3-8.2.5.5 1.3.1 1.7-.5 3 1.7.3 3.5 0 5.2 0l10.8-.4 23.3-.1 10.7.1q6.7 0 13.4.7c1.8.1 4.2-.1 5.7 1-1.4 1-4 .8-5.8.8h-13q-11 0-22 .5l-9 .2q-9 .7-17.9 1l-11 .3h-3c-1.8.2-4.7 1-5.6-1.2 1-1.2 3-1.3 4.6-1.5l7.4-1c1.4-.1 2.8 0 4.2-.5-.8-1.3-1-2.3-1-4 1-.7 1.2-.7 1.7-2 .5-.2 3.9-1.3 4-1.5zm112.5 3.5c-1.4 1-4.7 1-5.5-.7 1.3-1.2 4.7-1 5.5.7Zm87.9-1c-2.5 3-8.2 4.9-11.3 7.6l2.6.7c.4 1.2-.2 1.6-.7 2.7 3.4 0 6.8-.5 10 1 1.5.6 2.7 1 3 2.6q-1.2 1.2-2.7.3-3.4-1.5-7.1-1.7c-2-.2-3.5.5-5-.9l1.3-1.7-1-.5c-.6 0-5 1.5-5.9 1.8-1.2.4-2 .8-3-.3 0-1.5 1.5-2 2.3-3.1 2.8-3.5 7.7-5.8 11.9-7.4 1.8-.7 3.7-1.7 5.6-1.1Zm-263.7 4c-1.3.9-3.7.4-5.3.2a21 21 0 0 0-10 .8c3 2 9 1.5 11.6 3.3-1 1.1-6.4 2.3-8.2 2.7-1 .3-2 .7-2.7 0 .9-1.3 2.2-1.6 3.5-2.4-2.1-.5-4.3-.9-6.2-2-1-.6-1.7-1.7-.9-2.8s2.2-1.4 3.3-1.7q5.4-1.4 10.7 0c1.6.4 3.2.4 4.2 1.9Zm213.7 4.6q-.9 1.6-2.8 1.5c-2.2 0-5-.5-7.3-1-1.3-.2-2.4-.3-3.2-1.5q1.3-1.6 3.5-1.4c2.5 0 8.1.5 9.8 2.4Zm-180.3.4c-1 1.5-3.2 1.1-4.8 1.3l-15.5 2c-1.2 0-4.3.8-5.2 0q-.4-.3-.5-1-3.6.8-7 1.8l-11 2.4c-1.8.4-5.4 2-6.9 1l.2-.8c.3-.7 3.6-1.5 4.5-1.8 5.1-2 10.4-3 15.8-4.2 1.8-.3 5.3-1.6 6.3.5 2.7-.6 5.2-1.6 8-2q4.7-.8 9.4-.3c2 .1 4.9-.3 6.6 1Zm79.6 5.6c-1.2 1-2.4.6-3.8.6l-7.7.1a384 384 0 0 0-26.6.7c-2.4.1-8.6 1-10.6-.4.6-1.3 1.8-1.1 3-1.3q4.4-.7 8.6-.8l8.6-.5c5.7-.2 11.4.2 17 .2q3 .1 6 .5c1.8.2 4-.1 5.5 1Zm-69.1 1c-1.1 1-2.8 1-4.2 1.2q-4.9.6-9.7.7c-1.3 0-3.7 1-4.3-.7 1.1-1.2 3-1.2 4.6-1.4 3.5-.4 10.5-1.4 13.6.2Zm116.3 7.3c-.5 1.5-1.8 1.1-3.1 1q-4.6-.1-9.2-.6l-7.8-.6q-13.6-.8-27.3-.8-4.4 0-8.6.5-2 .4-2.7-1.1c1-1 2-.7 3.3-1l9.3-.7q8.4-.7 17-.3t17.4 1.3l8.2 1.3q1.8.1 3.5 1Zm-95.3 1.2c-1.5 1.7-7.3 1-9.6 1-1.2-.1-2.8 0-3.4-1.2 2-1.6 7.3-1.2 9.7-1 1.1 0 3 0 3.3 1.2Zm120.9 2.8c-2 1.6-7.8.4-10.2 0-1.3-.2-2.4-.2-3.1-1.3 1.8-1.7 7.7-.7 10.1-.2 1.3.2 2.7.2 3.2 1.5Zm70.7 2.3c-1.5 1-3.9.3-5.5 0q-6.2-.8-12.5-1.1c-1.6 0-4.4 0-5.2-1.5 1.2-1 3-1 4.6-1q6.6 0 13.3 1.5c.8.2 5 1 5.3 1.6z"/></svg>